<?xml version="1.0" encoding="utf-8"?>
<!-- Svg Vector Icons : http://www.onlinewebfonts.com/icon -->
<!DOCTYPE svg PUBLIC "-//W3C//DTD SVG 1.1//EN" "http://www.w3.org/Graphics/SVG/1.1/DTD/svg11.dtd">
<svg version="1.1" xmlns="http://www.w3.org/2000/svg" xmlns:xlink="http://www.w3.org/1999/xlink" x="0px" y="0px" viewBox="0 0 1000 1000" enable-background="new 0 0 1000 1000" xml:space="preserve">
<metadata> Svg Vector Icons : http://www.onlinewebfonts.com/icon </metadata>
<g><g transform="translate(0.000000,511.000000) scale(0.100000,-0.100000)"><path d="M2230.6,4526.3c-506.5-110.3-798.6-531-782.3-1129.5c4.1-147.1,2-151.2-57.2-187.9c-128.7-77.6-159.3-300.2-75.6-555.6c34.7-106.2,157.3-257.3,261.4-322.7c49-28.6,89.9-85.8,143-196.1c130.7-277.8,406.5-492.2,690.4-537.2c341.1-57.2,725.1,171.6,906.9,537.2c53.1,108.3,96,169.5,143,198.1c106.2,65.4,226.7,216.5,265.5,330.9c18.4,57.2,34.7,169.5,36.8,249.2c2,163.4-36.8,257.4-124.6,302.3c-51.1,28.6-53.1,36.8-49,169.5c6.1,214.5-49,486.1-130.7,655.6C3262.1,4438.5,2753.5,4640.7,2230.6,4526.3z"/><path d="M7193.9,4526.3c-371.7-79.7-635.2-330.9-733.3-696.5c-18.4-65.4-36.8-226.7-42.9-355.4c-8.2-224.7-10.2-234.9-59.2-261.4c-28.6-14.3-67.4-55.1-85.8-91.9c-47-85.8-44.9-314.6,2.1-457.5c38.8-114.4,159.3-265.5,265.5-332.9c49-28.6,89.9-85.8,143-196.1c171.6-361.5,561.7-592.3,910.9-537.2c277.8,44.9,555.6,261.4,686.3,537.2c53.1,110.3,94,167.5,143,196.1c102.1,65.4,224.7,214.5,261.5,320.7c57.2,169.5,63.3,332.9,16.3,441.2c-24.5,55.2-63.3,106.2-91.9,118.5c-47,20.4-49,34.7-61.3,259.4c-20.4,398.3-112.3,637.3-314.6,821.1C7984.3,4518.2,7579.9,4610.1,7193.9,4526.3z"/><path d="M1385,1556.6c-359.5-143-437.1-181.8-629.1-314.5C382.2,984.7,159.5,572.1,106.4,43.1C94.2-85.6,96.2-95.8,141.2-128.5c71.5-49,388.1-147.1,633.2-194c537.2-106.2,1276.6-155.2,2009.8-136.8c281.9,6.1,567.8,18.4,639.3,24.5l126.6,14.3v114.4c0,183.8,53.1,386,155.2,592.3c77.6,155.2,124.6,222.6,263.5,361.5c143,140.9,204.2,185.9,375.8,269.6l208.3,102.1l-118.5,102.1c-65.4,57.2-187.9,147.1-275.7,200.2c-206.3,124.6-796.6,363.6-815,328.8c-8.2-14.3-24.5-75.6-38.8-136.9c-104.2-457.5-281.9-941.6-498.4-1358.3c-181.8-353.4-249.2-459.6-288-459.6c-38.8,0-120.5,128.7-296.2,473.9c-181.8,355.4-304.3,669.9-416.7,1064.1c-49,171.6-96,339.1-106.2,375.8l-18.4,65.4L1385,1556.6z"/><path d="M6348.3,1556.6c-357.4-143-437.1-181.8-623-310.5c-179.7-122.5-294.1-236.9-253.3-251.2c200.2-71.5,279.8-110.3,379.9-183.8c343.1-253.3,557.6-641.3,590.3-1062.1l14.3-171.6l196.1-18.4c343.1-28.6,1527.8-16.3,1891.3,20.4C9236.4-349.1,9853.2-198,9896.1-89.7c18.4,53.1-30.6,363.6-89.9,549.4c-177.7,567.8-496.3,841.5-1356.2,1162.2l-134.8,51.1l-57.2-216.5c-110.3-433-253.3-825.2-439.1-1198.9c-204.2-416.7-292.1-561.7-337-561.7c-38.8,0-106.2,108.3-298.2,480c-185.9,359.5-332.9,745.5-437.1,1143.8c-42.9,157.3-81.7,302.3-89.9,320.7C6646.5,1670.9,6609.7,1660.7,6348.3,1556.6z"/><path d="M4761.3,653.8c-371.7-61.3-653.6-300.2-763.9-649.5c-30.6-96-47-210.4-53.1-392.2c-10.2-249.2-14.3-259.4-59.2-281.9c-85.8-38.8-130.7-138.9-130.7-290c0-257.4,100.1-457.5,283.9-571.9c75.6-49,104.2-81.7,130.7-157.3c44.9-120.5,190-318.6,304.3-408.5c192-153.2,439.1-226.7,643.4-189.9c304.3,57.2,598.4,304.3,714.9,600.5c28.6,69.5,63.3,110.3,138.9,161.4c183.8,122.6,275.7,316.6,275.7,584.1c0,132.8-51.1,234.9-132.8,273.7c-49,22.5-51.1,30.6-51.1,218.5c-2,369.7-98,651.6-290,839.5C5541.5,619.1,5153.4,719.1,4761.3,653.8z"/><path d="M3825.8-2344.6c-473.9-194-627.1-290-843.5-520.9c-220.6-236.9-375.8-633.2-379.9-972.2l-2-173.6l116.4-44.9c482-194,1196.9-281.9,2283.5-281.9c1086.6,0,1801.5,87.8,2283.5,281.9l116.4,44.9l-2,173.6c-2.1,212.4-61.3,435-175.7,674c-151.1,312.5-449.3,565.8-898.7,759.8c-202.2,87.8-449.3,179.7-477.9,179.7c-10.2,0-40.8-85.8-65.4-187.9c-91.9-363.6-273.7-872.1-414.6-1164.2c-169.5-345.2-322.7-608.7-355.4-608.7c-53.1,0-145,149.1-347.2,551.5c-181.8,363.6-373.8,902.8-459.6,1292.9c-18.4,81.7-36.8,116.4-59.2,116.4C4126.1-2224.1,3983.1-2279.3,3825.8-2344.6z"/></g></g>
</svg>