<?xml version="1.0" encoding="utf-8"?>
<!-- Generator: Adobe Illustrator 20.1.0, SVG Export Plug-In . SVG Version: 6.00 Build 0)  -->
<svg version="1.1" id="Layer_1" xmlns="http://www.w3.org/2000/svg" xmlns:xlink="http://www.w3.org/1999/xlink" x="0px" y="0px"
	 width="24px" height="24px" viewBox="0 0 24 24" style="enable-background:new 0 0 24 24;" xml:space="preserve">
<path d="M21,10v11c0,0.5-0.5,1-1,1H4c-0.5,0-1-0.5-1-1V10c0-0.5,0.5-1,1-1h16C20.5,9,21,9.5,21,10z"/>
<path d="M20,2H4C3.5,2,3,2.5,3,3v4c0,0.5,0.5,1,1,1h16c0.5,0,1-0.5,1-1V3C21,2.5,20.5,2,20,2z M19,6h-7V4h7V6z"/>
</svg>
