<?xml version="1.0" encoding="UTF-8" standalone="no"?>
<!DOCTYPE svg PUBLIC "-//W3C//DTD SVG 1.1//EN" "http://www.w3.org/Graphics/SVG/1.1/DTD/svg11.dtd">
<svg version="1.1" xmlns="http://www.w3.org/2000/svg" xmlns:xlink="http://www.w3.org/1999/xlink" preserveAspectRatio="xMidYMid meet" viewBox="0 0 640 640" width="28" height="28"><defs><path d="M288.49 436.31C308.81 414.82 320.09 386.34 320 356.77C320 345.53 320 289.35 320 188.23C309.88 186.01 259.27 174.9 168.17 154.91C77.02 174.9 26.38 186.01 16.25 188.23C16.25 289.35 16.25 345.53 16.25 356.77C16.16 386.34 27.44 414.82 47.76 436.31C80.6 471.23 118.87 500.61 161.09 523.31C165.51 525.69 170.83 525.69 175.25 523.31C217.43 500.58 255.66 471.21 288.49 436.31Z" id="c58u27TUp"></path><path d="M483.53 31.84C481.93 24.52 475.46 19.29 467.96 19.28C451.53 19.28 320.09 19.28 303.66 19.28C296.15 19.27 289.66 24.5 288.09 31.84C287.6 34.6 285.15 48.41 280.73 73.25C237.28 73.25 213.14 73.25 208.32 73.25C175.17 73.32 147.74 99.05 145.55 132.12C146.89 131.82 153.62 130.34 165.74 127.68C177.64 130.29 184.25 131.74 185.57 132.03C187.54 121.01 197.12 113 208.32 113.01C227.63 113.01 324.2 113.04 498.02 113.1C498.02 113.09 498.02 113.02 498.02 113.01C537.19 113.01 558.95 113.01 563.3 113.01C576.1 113.03 586.46 123.41 586.45 136.2C586.45 178.36 586.45 515.66 586.45 557.82C586.42 570.59 576.08 580.94 563.3 580.97C527.8 580.97 243.81 580.97 208.32 580.97C195.54 580.95 185.18 570.6 185.16 557.82C185.16 556.31 185.16 544.25 185.16 542.74C184.94 542.88 184.76 542.97 184.54 543.1C172.82 549.44 158.7 549.44 146.98 543.1C146.44 542.83 145.91 542.52 145.41 542.25C145.41 543.81 145.41 556.26 145.41 557.82C145.47 592.53 173.6 620.66 208.32 620.72C243.81 620.72 527.81 620.72 563.3 620.72C598.01 620.64 626.11 592.52 626.16 557.82C626.16 515.66 626.16 178.36 626.16 136.2C626.13 101.49 598.02 73.34 563.3 73.25C563.3 73.25 539.18 73.25 490.93 73.25C486.49 48.41 484.02 34.6 483.53 31.84Z" id="bKkyY3WEs"></path><path d="M483.53 31.84C481.93 24.52 475.46 19.29 467.96 19.28C451.53 19.28 320.09 19.28 303.66 19.28C296.15 19.27 289.66 24.5 288.09 31.84C287.6 34.6 285.15 48.41 280.73 73.25C237.28 73.25 213.14 73.25 208.32 73.25C175.17 73.32 147.74 99.05 145.55 132.12C146.89 131.82 153.62 130.34 165.74 127.68C177.64 130.29 184.25 131.74 185.57 132.03C187.54 121.01 197.12 113 208.32 113.01C227.63 113.01 324.2 113.04 498.02 113.1C498.02 113.09 498.02 113.02 498.02 113.01C537.19 113.01 558.95 113.01 563.3 113.01C576.1 113.03 586.46 123.41 586.45 136.2C586.45 178.36 586.45 515.66 586.45 557.82C586.42 570.59 576.08 580.94 563.3 580.97C527.8 580.97 243.81 580.97 208.32 580.97C195.54 580.95 185.18 570.6 185.16 557.82C185.16 556.31 185.16 544.25 185.16 542.74C184.94 542.88 184.76 542.97 184.54 543.1C172.82 549.44 158.7 549.44 146.98 543.1C146.44 542.83 145.91 542.52 145.41 542.25C145.41 543.81 145.41 556.26 145.41 557.82C145.47 592.53 173.6 620.66 208.32 620.72C243.81 620.72 527.81 620.72 563.3 620.72C598.01 620.64 626.11 592.52 626.16 557.82C626.16 515.66 626.16 178.36 626.16 136.2C626.13 101.49 598.02 73.34 563.3 73.25C563.3 73.25 539.18 73.25 490.93 73.25C486.49 48.41 484.02 34.6 483.53 31.84Z" id="b1Wl4zvLJ5"></path><path d="M366.6 310C361.25 310 356.91 314.34 356.91 319.68C356.91 325.03 361.25 329.37 366.6 329.37C382.97 329.37 513.94 329.37 530.32 329.37C535.66 329.37 540 325.04 540 319.69C540 317.12 538.98 314.66 537.16 312.84C535.35 311.02 532.89 309.99 530.32 310C513.94 310 382.97 310 366.6 310Z" id="b3TBQ8NWfB"></path><path d="M366.6 500.63C361.25 500.63 356.91 504.97 356.91 510.32C356.91 515.66 361.25 520 366.6 520C382.97 520 513.94 520 530.32 520C535.66 520 540 515.67 540 510.33C540 507.75 538.98 505.29 537.16 503.47C535.35 501.65 532.89 500.63 530.32 500.63C513.94 500.63 382.97 500.63 366.6 500.63Z" id="aOMrDZBGD"></path><path d="M366.59 360C361.25 360 356.91 364.34 356.91 369.69C356.91 375.03 361.25 379.37 366.59 379.37C382.97 379.37 513.94 379.37 530.31 379.37C535.66 379.37 540 375.04 540 369.7C540 367.12 538.98 364.66 537.16 362.84C535.35 361.02 532.88 360 530.31 360C513.94 360 382.97 360 366.59 360Z" id="b8MC9jCeC"></path><path d="M452.96 175.7C452.97 170.35 448.65 166.01 443.3 166C443.28 166 443.27 166 443.26 166C435.6 166 374.38 166 366.72 166C361.38 165.99 357.03 170.31 357.02 175.66C357.01 181.01 361.33 185.35 366.68 185.36C366.69 185.36 366.71 185.36 366.72 185.36C366.72 185.36 435.61 185.36 443.26 185.36C448.61 185.37 452.95 181.05 452.96 175.7Z" id="c4f1HVshQ"></path><path d="M367.6 452.63C362.25 452.63 357.91 456.97 357.91 462.32C357.91 467.66 362.25 472 367.6 472C383.97 472 514.94 472 531.32 472C536.66 472 541 467.67 541 462.33C541 459.75 539.98 457.29 538.16 455.47C536.35 453.65 533.89 452.63 531.32 452.63C514.94 452.63 383.97 452.63 367.6 452.63Z" id="e1BF6kFUMu"></path><path d="M366.6 404.04C361.25 404.04 356.91 408.37 356.91 413.72C356.91 419.07 361.25 423.41 366.6 423.41C382.97 423.41 513.94 423.41 530.32 423.41C535.66 423.41 540 419.08 540 413.73C540 411.16 538.98 408.7 537.16 406.88C535.35 405.06 532.89 404.03 530.32 404.04C513.94 404.04 382.97 404.04 366.6 404.04Z" id="an21udHZ9"></path><path d="M366.6 210C361.25 210 356.91 214.34 356.91 219.69C356.91 225.03 361.25 229.37 366.6 229.37C382.97 229.37 513.94 229.37 530.32 229.37C535.66 229.37 540 225.04 540 219.7C540 217.12 538.98 214.66 537.16 212.84C535.35 211.02 532.89 210 530.32 210C513.94 210 382.97 210 366.6 210Z" id="a5redJ7er"></path><path d="M366.6 548.63C361.25 548.63 356.91 552.97 356.91 558.32C356.91 563.66 361.25 568 366.6 568C382.97 568 513.94 568 530.32 568C535.66 568 540 563.67 540 558.33C540 555.75 538.98 553.29 537.16 551.47C535.35 549.65 532.89 548.63 530.32 548.63C513.94 548.63 382.97 548.63 366.6 548.63Z" id="a8lICgLl"></path><path d="M365.38 258.63C360.04 258.63 355.7 262.97 355.7 268.32C355.7 273.66 360.04 278 365.38 278C381.76 278 512.73 278 529.1 278C534.45 278 538.79 273.67 538.79 268.33C538.79 265.75 537.77 263.29 535.95 261.47C534.14 259.65 531.67 258.63 529.1 258.63C512.73 258.63 381.76 258.63 365.38 258.63Z" id="b11bbhf7ZY"></path><path d="M366.6 548.63C361.25 548.63 356.91 552.97 356.91 558.32C356.91 563.66 361.25 568 366.6 568C382.97 568 513.94 568 530.32 568C535.66 568 540 563.67 540 558.33C540 555.75 538.98 553.29 537.16 551.47C535.35 549.65 532.89 548.63 530.32 548.63C513.94 548.63 382.97 548.63 366.6 548.63Z" id="btmFgypIz"></path><path d="M145.09 393.07C141.29 396.83 141.25 402.96 145.01 406.76C148.77 410.57 154.9 410.6 158.71 406.84C170.35 395.33 263.48 303.24 275.12 291.73C278.93 287.97 278.96 281.84 275.21 278.04C273.4 276.21 270.94 275.17 268.37 275.16C265.8 275.14 263.33 276.14 261.51 277.95C249.86 289.47 156.73 381.56 145.09 393.07Z" id="a1in3mqU1M"></path><path d="M145.09 393.07C141.29 396.83 141.25 402.96 145.01 406.76C148.77 410.57 154.9 410.6 158.71 406.84C170.35 395.33 263.48 303.24 275.12 291.73C278.93 287.97 278.96 281.84 275.21 278.04C273.4 276.21 270.94 275.17 268.37 275.16C265.8 275.14 263.33 276.14 261.51 277.95C249.86 289.47 156.73 381.56 145.09 393.07Z" id="a549GwQ2ry"></path><path d="M93 332.14C88.94 335.62 88.47 341.73 91.95 345.79C91.96 345.8 91.97 345.81 91.98 345.82C96.97 351.62 136.91 398.03 141.9 403.83C145.38 407.89 151.49 408.36 155.55 404.89C159.61 401.41 160.08 395.3 156.61 391.24C156.6 391.22 156.59 391.21 156.58 391.2C156.58 391.2 111.65 338.99 106.65 333.19C103.18 329.13 97.06 328.66 93 332.14Z" id="h1ZU1HAYha"></path><path d="M93.38 332.33C89.32 335.81 88.85 341.92 92.33 345.98C92.34 345.99 92.35 346 92.36 346.01C97.35 351.81 137.29 398.22 142.28 404.02C145.76 408.08 151.87 408.55 155.93 405.08C159.99 401.6 160.46 395.49 156.99 391.43C156.98 391.41 156.97 391.4 156.96 391.39C156.96 391.39 112.03 339.18 107.03 333.38C103.56 329.32 97.44 328.85 93.38 332.33Z" id="h2ADW9NMup"></path></defs><g><g><g><use xlink:href="#c58u27TUp" opacity="1" fill="#000000" fill-opacity="1"></use><g><use xlink:href="#c58u27TUp" opacity="1" fill-opacity="0" stroke="#000000" stroke-width="1" stroke-opacity="0"></use></g></g><g><use xlink:href="#bKkyY3WEs" opacity="1" fill="#2d3e50" fill-opacity="1"></use><g><use xlink:href="#bKkyY3WEs" opacity="1" fill-opacity="0" stroke="#000000" stroke-width="1" stroke-opacity="0"></use></g></g><g><use xlink:href="#b1Wl4zvLJ5" opacity="1" fill="#000000" fill-opacity="1"></use><g><use xlink:href="#b1Wl4zvLJ5" opacity="1" fill-opacity="0" stroke="#000000" stroke-width="1" stroke-opacity="0"></use></g></g><g><use xlink:href="#b3TBQ8NWfB" opacity="1" fill="#2d3e50" fill-opacity="1"></use><g><use xlink:href="#b3TBQ8NWfB" opacity="1" fill-opacity="0" stroke="#000000" stroke-width="1" stroke-opacity="0"></use></g></g><g><use xlink:href="#aOMrDZBGD" opacity="1" fill="#2d3e50" fill-opacity="1"></use><g><use xlink:href="#aOMrDZBGD" opacity="1" fill-opacity="0" stroke="#000000" stroke-width="1" stroke-opacity="0"></use></g></g><g><use xlink:href="#b8MC9jCeC" opacity="1" fill="#2d3e50" fill-opacity="1"></use><g><use xlink:href="#b8MC9jCeC" opacity="1" fill-opacity="0" stroke="#000000" stroke-width="1" stroke-opacity="0"></use></g></g><g><use xlink:href="#c4f1HVshQ" opacity="1" fill="#2d3e50" fill-opacity="1"></use><g><use xlink:href="#c4f1HVshQ" opacity="1" fill-opacity="0" stroke="#000000" stroke-width="1" stroke-opacity="0"></use></g></g><g><use xlink:href="#e1BF6kFUMu" opacity="1" fill="#2d3e50" fill-opacity="1"></use><g><use xlink:href="#e1BF6kFUMu" opacity="1" fill-opacity="0" stroke="#000000" stroke-width="1" stroke-opacity="0"></use></g></g><g><use xlink:href="#an21udHZ9" opacity="1" fill="#2d3e50" fill-opacity="1"></use><g><use xlink:href="#an21udHZ9" opacity="1" fill-opacity="0" stroke="#000000" stroke-width="1" stroke-opacity="0"></use></g></g><g><use xlink:href="#a5redJ7er" opacity="1" fill="#2d3e50" fill-opacity="1"></use><g><use xlink:href="#a5redJ7er" opacity="1" fill-opacity="0" stroke="#000000" stroke-width="1" stroke-opacity="0"></use></g></g><g><use xlink:href="#a8lICgLl" opacity="1" fill="#000000" fill-opacity="0"></use><g><use xlink:href="#a8lICgLl" opacity="1" fill-opacity="0" stroke="#000000" stroke-width="1" stroke-opacity="0"></use></g></g><g><use xlink:href="#b11bbhf7ZY" opacity="1" fill="#2d3e50" fill-opacity="1"></use><g><use xlink:href="#b11bbhf7ZY" opacity="1" fill-opacity="0" stroke="#000000" stroke-width="1" stroke-opacity="0"></use></g></g><g><use xlink:href="#btmFgypIz" opacity="1" fill="#2d3e50" fill-opacity="1"></use><g><use xlink:href="#btmFgypIz" opacity="1" fill-opacity="0" stroke="#000000" stroke-width="1" stroke-opacity="0"></use></g></g><g><use xlink:href="#a1in3mqU1M" opacity="1" fill="#ffffff" fill-opacity="1"></use><g><use xlink:href="#a1in3mqU1M" opacity="1" fill-opacity="0" stroke="#000000" stroke-width="1" stroke-opacity="0"></use></g></g><g><use xlink:href="#a549GwQ2ry" opacity="1" fill="#000000" fill-opacity="0"></use><g><use xlink:href="#a549GwQ2ry" opacity="1" fill-opacity="0" stroke="#000000" stroke-width="1" stroke-opacity="0"></use></g></g><g><use xlink:href="#h1ZU1HAYha" opacity="1" fill="#ffffff" fill-opacity="1"></use><g><use xlink:href="#h1ZU1HAYha" opacity="1" fill-opacity="0" stroke="#000000" stroke-width="1" stroke-opacity="0"></use></g></g><g><use xlink:href="#h2ADW9NMup" opacity="1" fill="#000000" fill-opacity="0"></use><g><use xlink:href="#h2ADW9NMup" opacity="1" fill-opacity="0" stroke="#000000" stroke-width="1" stroke-opacity="0"></use></g></g></g></g></svg>