<?xml version="1.0" encoding="UTF-8" standalone="no"?>
<svg width="24px" height="24px" viewBox="0 0 24 24" version="1.1" xmlns="http://www.w3.org/2000/svg" xmlns:xlink="http://www.w3.org/1999/xlink">
    <!-- Generator: Sketch 44.1 (41455) - http://www.bohemiancoding.com/sketch -->
    <title>Icons/Nokia/SURE/Black/ic_fcp</title>
    <desc>Created with Sketch.</desc>
    <defs></defs>
    <g id="Icons---Nokia" stroke="none" stroke-width="1" fill="none" fill-rule="evenodd">
        <g id="Icons/Nokia/SURE/Black/ic_fcp" fill-rule="nonzero" fill="#000000">
            <path d="M18,18.7 C18,20.5 16.5,22 14.7,22 L6,22 C3.8,22 2,20.2 2,18 C2,15.9 3.6,14.6 5.6,14.4 C6.4,12.8 8.1,11.7 10,11.7 C12.4,11.7 14.4,13.4 14.9,15.7 C16.6,15.9 18,16.9 18,18.7 Z M16,2 L16,8 L18,8 L18,14 L20,14 L20,8 L22,8 L22,2 L16,2 Z" id="Shape"></path>
        </g>
    </g>
</svg>