<?xml version="1.0" encoding="utf-8"?>
<!-- Generator: Adobe Illustrator 21.0.0, SVG Export Plug-In . SVG Version: 6.00 Build 0)  -->
<svg version="1.1" id="Layer_1" xmlns="http://www.w3.org/2000/svg" xmlns:xlink="http://www.w3.org/1999/xlink" x="0px" y="0px"
	 viewBox="0 0 32 32" style="enable-background:new 0 0 32 32;" xml:space="preserve">
<style type="text/css">
	
	.st1{fill:#FFFFFF;}
</style>
<circle id="severityBackgrnd"  style="fill:#BE0006" cx="16" cy="16.1" r="15"/>
<path class="st1" d="M16.3,20.9c0.8,0,1.5-0.2,2-0.7s0.8-1.1,0.9-1.7h3c0,0.9-0.3,1.7-0.8,2.5s-1.2,1.4-2.1,1.8s-1.9,0.7-2.9,0.7
	c-2,0-3.6-0.7-4.8-2s-1.8-3.1-1.8-5.4v-0.3c0-2.2,0.6-3.9,1.8-5.3s2.8-2,4.8-2c1.7,0,3.1,0.5,4.2,1.5c1.1,1,1.6,2.3,1.7,3.9h-3
	c0-0.8-0.3-1.5-0.8-2s-1.2-0.8-2-0.8c-1,0-1.9,0.4-2.4,1.1c-0.6,0.8-0.9,1.9-0.9,3.5v0.5c0,1.6,0.3,2.7,0.8,3.5
	C14.5,20.5,15.3,20.9,16.3,20.9z"/>
</svg>
