<?xml version="1.0" encoding="utf-8"?>
<!-- Generator: Adobe Illustrator 21.1.0, SVG Export Plug-In . SVG Version: 6.00 Build 0)  -->
<svg version="1.1" id="Layer_1" xmlns="http://www.w3.org/2000/svg" xmlns:xlink="http://www.w3.org/1999/xlink" x="0px" y="0px"
	 viewBox="0 0 69 83" style="enable-background:new 0 0 69 83;" xml:space="preserve">
<style type="text/css">
	.st0{display:none;}
	.st1{display:inline;}
	.st2{fill:#42A5F5;}
	.st3{fill:#8CC63F;}
	.st4{fill:#FFFFFF;}
	.st5{display:inline;fill:#9E9E9E;}
	.st6{display:inline;fill:none;}
	.st7{fill:#FFCC00;}
	.st8{fill:#FF7900;}
	.st9{fill:#9E9E9E;}
	.st10{fill:#D7CCC8;}
	.st11{opacity:0.54;}
	.st12{fill:#BE0006;}
	.st13{fill:#607D8B;}
	.st14{enable-background:new    ;}
	.st15{fill:#06BFA9;}
</style>
<g id="Layer_13" class="st0">
	<g class="st1">
		<path class="st2" d="M11.5,68C9.6,68,8,66.4,8,64.5v-46c0-1.9,1.6-3.5,3.5-3.5h46c1.9,0,3.5,1.6,3.5,3.5v46c0,1.9-1.6,3.5-3.5,3.5
			H11.5z"/>
		<path class="st2" d="M57.5,17.5c0.6,0,1,0.4,1,1v46c0,0.6-0.4,1-1,1h-46c-0.6,0-1-0.4-1-1v-46c0-0.6,0.4-1,1-1H57.5 M57.5,12.5
			h-46c-3.3,0-6,2.7-6,6v46c0,3.3,2.7,6,6,6h46c3.3,0,6-2.7,6-6v-46C63.5,15.2,60.8,12.5,57.5,12.5L57.5,12.5z"/>
	</g>
</g>
<g id="Layer_14">
	<path class="st3" d="M57.5,65.5h-46c-0.6,0-1-0.4-1-1v-46c0-0.6,0.4-1,1-1h46c0.6,0,1,0.4,1,1v46C58.5,65.1,58.1,65.5,57.5,65.5z"
		/>
</g>
<g id="Layer_19" class="st0">
	<g class="st1">
		<polygon class="st4" points="30.1,41.5 22,34.6 22,39.1 17.5,39.1 17.5,43.9 22,43.9 22,48.4 		"/>
		<polygon class="st4" points="51.5,39.1 47,39.1 47,34.6 38.9,41.5 47,48.4 47,43.9 51.5,43.9 		"/>
		<polygon class="st4" points="41.4,32.6 34.5,24.5 27.6,32.6 32.1,32.6 32.1,37.1 36.9,37.1 36.9,32.6 		"/>
		<polygon class="st4" points="36.9,50.4 36.9,45.9 32.1,45.9 32.1,50.4 27.6,50.4 34.5,58.5 41.4,50.4 		"/>
	</g>
</g>
<g id="Layer_16" class="st0">
	<g class="st1">
		<path class="st2" d="M34.5,68C19.9,68,8,56.1,8,41.5S19.9,15,34.5,15S61,26.9,61,41.5S49.1,68,34.5,68z"/>
		<path class="st2" d="M34.5,17.5c13.3,0,24,10.7,24,24s-10.7,24-24,24s-24-10.7-24-24S21.2,17.5,34.5,17.5 M34.5,12.5
			c-16,0-29,13-29,29s13,29,29,29s29-13,29-29S50.5,12.5,34.5,12.5L34.5,12.5z"/>
	</g>
</g>
<g id="Layer_17" class="st0">
	<circle class="st5" cx="34.5" cy="41.5" r="24"/>
</g>
<g id="Layer_18" class="st0">
	<line class="st6" x1="34.5" y1="-7.4" x2="34.5" y2="90.4"/>
	<line class="st6" x1="83.4" y1="41.5" x2="-14.4" y2="41.5"/>
</g>
<g id="Layer_1_1_" class="st0">
	<g id="Layer_4" class="st1">
		<circle id="severityBackgrnd_14_" class="st7" cx="45.5" cy="4.4" r="10"/>
		<g>
			<path class="st4" d="M47.9,2.3c-0.3,0-0.5,0.1-0.7,0.2S46.9,2.8,46.8,3c-0.1,0.2-0.1,0.5-0.2,0.7c-0.1,0.3-0.1,0.7-0.1,0.9
				l-0.1,3.5h-1.8l0.1-4.5c0-0.4-0.1-0.8-0.3-1S44,2.3,43.7,2.3S43.2,2.4,43,2.5S42.7,2.8,42.6,3c-0.1,0.2-0.1,0.5-0.2,0.7
				c-0.1,0.3-0.1,0.7-0.1,0.9l-0.1,3.5h-1.8l0.1-7.3h1.7l0.1,0.9c0.1-0.1,0.1-0.2,0.3-0.3s0.3-0.3,0.4-0.3c0.1-0.1,0.3-0.2,0.5-0.3
				s0.4-0.1,0.7-0.1c0.9,0,1.6,0.3,1.9,1.1c0.2-0.3,0.5-0.5,0.7-0.7c0.3-0.2,0.7-0.3,1.3-0.3c0.9,0,1.5,0.3,1.9,0.7s0.6,1.3,0.6,2.1
				l-0.1,4.6h-1.8l0.1-4.5c0-0.4-0.1-0.8-0.3-1C48.4,2.4,48.1,2.3,47.9,2.3z"/>
		</g>
	</g>
	<g id="Layer_5" class="st1">
		<circle id="severityBackgrnd_13_" class="st8" cx="45.5" cy="4.4" r="10"/>
		<g>
			<path class="st4" d="M50.3-0.6v10h-1.9V2.8l-2.2,4.4h-1.4L42.7,3v6.6h-1.9v-10h2.1l2.6,5.5l2.7-5.6L50.3-0.6z"/>
		</g>
	</g>
	<g id="Layer_6" class="st1">
		<circle id="severityBackgrnd_12_" class="st9" cx="45.5" cy="4.4" r="10"/>
		<g>
			<rect x="44.6" y="2.8" class="st4" width="1.9" height="6.7"/>
			<rect x="44.6" y="-0.6" class="st4" width="1.9" height="2"/>
		</g>
	</g>
	<g id="Layer_7" class="st1">
		<circle id="severityBackgrnd_11_" class="st10" cx="45.5" cy="4.4" r="10"/>
		<g class="st11">
			<g>
				<path d="M46.5,9.4h-1.9v-10h1.9V9.4z"/>
			</g>
		</g>
	</g>
	<g id="Layer_8" class="st1">
		<circle id="severityBackgrnd_10_" class="st12" cx="45.5" cy="4.4" r="10"/>
		<path class="st4" d="M45.7,7.8c0.5,0,1-0.1,1.3-0.5c0.3-0.3,0.5-0.7,0.6-1.1h2c0,0.6-0.2,1.1-0.5,1.7c-0.3,0.5-0.8,0.9-1.4,1.2
			s-1.3,0.5-1.9,0.5c-1.3,0-2.4-0.5-3.2-1.3s-1.2-2.1-1.2-3.6V4.5c0-1.5,0.4-2.6,1.2-3.5s1.9-1.3,3.2-1.3c1.1,0,2.1,0.3,2.8,1
			s1.1,1.5,1.1,2.6h-2c0-0.5-0.2-1-0.5-1.3s-0.8-0.5-1.3-0.5c-0.7,0-1.3,0.3-1.6,0.7c-0.4,0.5-0.6,1.3-0.6,2.3v0.3
			c0,1.1,0.2,1.8,0.5,2.3C44.5,7.4,45,7.8,45.7,7.8z"/>
	</g>
	<g id="Layer_9" class="st1">
		<circle id="severityBackgrnd_9_" class="st13" cx="45.5" cy="4.4" r="10"/>
		<g class="st14">
			<path class="st4" d="M42.2,6.8c0.4,0,0.7-0.1,1-0.3c0.3-0.2,0.4-0.5,0.4-0.9h1.5c0,0.5-0.1,0.9-0.4,1.2c-0.3,0.4-0.6,0.7-1,0.9
				S42.8,8,42.3,8c-1,0-1.7-0.3-2.3-0.9s-0.9-1.5-0.9-2.6l0,0c0-1.1,0.3-1.9,0.9-2.5c0.6-0.6,1.3-0.9,2.3-0.9c0.8,0,1.5,0.3,2,0.7
				c0.5,0.5,0.8,1.1,0.8,1.9h-1.5c0-0.4-0.1-0.7-0.4-1c-0.3-0.3-0.6-0.4-1-0.4c-0.5,0-0.9,0.2-1.2,0.5c-0.3,0.4-0.4,0.9-0.4,1.7v0.3
				c0,0.7,0.1,1.3,0.4,1.7C41.3,6.7,41.7,6.8,42.2,6.8z"/>
			<path class="st4" d="M47.7,1.2L47.8,2c0.5-0.6,1.2-0.9,2-0.9c1.5,0,2.2,0.8,2.2,2.5v4.6h-1.5V3.7c0-0.5-0.1-0.8-0.3-1
				s-0.5-0.3-0.9-0.3c-0.6,0-1.1,0.3-1.4,0.9v4.9h-1.5v-7H47.7L47.7,1.2z"/>
		</g>
	</g>
	<g id="Layer_10" class="st1">
		<circle id="severityBackgrnd_1_" class="st15" cx="45.5" cy="4.4" r="10"/>
		<g>
			<path class="st4" d="M43.7,8.2c0.4,0,0.7-0.1,1-0.3s0.4-0.5,0.4-0.9h1.5c0,0.5-0.1,0.9-0.4,1.2c-0.3,0.4-0.6,0.7-1.1,0.9
				s-0.9,0.3-1.4,0.3c-1,0-1.7-0.3-2.3-0.9c-0.6-0.7-0.9-1.5-0.9-2.7l0,0c0-1.1,0.3-1.9,0.9-2.5c0.6-0.7,1.3-0.9,2.3-0.9
				c0.9,0,1.5,0.3,2.1,0.7c0.5,0.5,0.8,1.1,0.8,1.9h-1.5c0-0.4-0.1-0.7-0.4-1c-0.3-0.3-0.6-0.4-1-0.4c-0.5,0-0.9,0.2-1.2,0.5
				c-0.3,0.4-0.4,0.9-0.4,1.7V6c0,0.7,0.1,1.3,0.4,1.7C42.7,8.1,43.1,8.2,43.7,8.2z"/>
			<g>
				<path class="st4" d="M50.6,9.4h-1.8v-10h1.8V9.4z"/>
			</g>
		</g>
	</g>
	<g id="Layer_2" class="st1">
		<g>
			<g id="Marker_1_">
				<path class="st4" d="M43.2,65.8L43.2,65.8L43.2,65.8z"/>
				<path class="st4" d="M4.4,65.8L4.4,65.8L4.4,65.8z"/>
				<path class="st9" d="M37.1,22.5c-3.9-2.2-8.5-3.5-13.3-3.5C8.8,19-3.3,31.2-3.3,46.3c0,4.2,0.9,8.1,2.6,11.6
					c1.3,2.9,3.1,5.5,5.4,7.8l0,0L22.5,84c0.7,0.8,2,0.8,2.7,0L43,65.8l0,0c2.2-2.2,4-4.9,5.4-7.8C50,54.5,51,50.5,51,46.3
					c0-5-1.3-9.6-3.6-13.6C42.3,31.4,38.4,27.5,37.1,22.5z"/>
			</g>
			<g id="Layer_4_1_">
				<circle id="severityBackgrnd_2_" class="st7" cx="50.9" cy="18.9" r="10"/>
				<g>
					<path class="st4" d="M53.3,16.8c-0.3,0-0.5,0.1-0.7,0.2s-0.3,0.3-0.4,0.5c-0.1,0.2-0.1,0.5-0.2,0.7c-0.1,0.3-0.1,0.7-0.1,0.9
						l-0.1,3.5H50l0.1-4.5c0-0.4-0.1-0.8-0.3-1s-0.4-0.3-0.7-0.3s-0.5,0.1-0.7,0.2s-0.3,0.3-0.4,0.5c-0.1,0.2-0.1,0.5-0.2,0.7
						c-0.1,0.3-0.1,0.7-0.1,0.9l-0.1,3.5h-1.8l0.1-7.3h1.7l0.1,0.9c0.1-0.1,0.1-0.2,0.3-0.3s0.3-0.3,0.4-0.3
						c0.1-0.1,0.3-0.2,0.5-0.3s0.4-0.1,0.7-0.1c0.9,0,1.6,0.3,1.9,1.1c0.2-0.3,0.5-0.5,0.7-0.7c0.3-0.2,0.7-0.3,1.3-0.3
						c0.9,0,1.5,0.3,1.9,0.7c0.4,0.4,0.6,1.2,0.6,2l-0.1,4.6h-1.8l0.1-4.5c0-0.4-0.1-0.8-0.3-1C53.8,16.9,53.5,16.8,53.3,16.8z"/>
				</g>
			</g>
		</g>
	</g>
	<g id="Layer_3_1_" class="st1">
		<g>
			<g id="Marker_2_">
				<path class="st4" d="M43.2,65.8L43.2,65.8L43.2,65.8z"/>
				<path class="st4" d="M4.4,65.8L4.4,65.8L4.4,65.8z"/>
				<path class="st9" d="M37.1,22.5c-3.9-2.2-8.5-3.5-13.3-3.5C8.8,19-3.3,31.2-3.3,46.3c0,4.2,0.9,8.1,2.6,11.6
					c1.3,2.9,3.1,5.5,5.4,7.8l0,0L22.5,84c0.7,0.8,2,0.8,2.7,0L43,65.8l0,0c2.2-2.2,4-4.9,5.4-7.8C50,54.5,51,50.5,51,46.3
					c0-5-1.3-9.6-3.6-13.6C42.3,31.4,38.4,27.5,37.1,22.5z"/>
			</g>
			<g id="Layer_5_1_">
				<circle id="severityBackgrnd_3_" class="st8" cx="50.9" cy="18.9" r="10"/>
				<g>
					<path class="st4" d="M55.7,13.9v10h-1.9v-6.7l-2.2,4.4h-1.4l-2.1-4.2V24h-1.9V14h2.1l2.6,5.5l2.7-5.6L55.7,13.9z"/>
				</g>
			</g>
		</g>
	</g>
	<g id="Layer_4_2_" class="st1">
		<g>
			<g id="Marker_3_">
				<path class="st4" d="M43.2,65.8L43.2,65.8L43.2,65.8z"/>
				<path class="st4" d="M4.4,65.8L4.4,65.8L4.4,65.8z"/>
				<path class="st9" d="M37.1,22.5c-3.9-2.2-8.5-3.5-13.3-3.5C8.8,19-3.3,31.2-3.3,46.3c0,4.2,0.9,8.1,2.6,11.6
					c1.3,2.9,3.1,5.5,5.4,7.8l0,0L22.5,84c0.7,0.8,2,0.8,2.7,0L43,65.8l0,0c2.2-2.2,4-4.9,5.4-7.8C50,54.5,51,50.5,51,46.3
					c0-5-1.3-9.6-3.6-13.6C42.3,31.4,38.4,27.5,37.1,22.5z"/>
			</g>
			<g id="Layer_6_1_">
				<circle id="severityBackgrnd_4_" class="st9" cx="50.9" cy="18.9" r="10"/>
				<g>
					<rect x="50" y="17.2" class="st4" width="1.9" height="6.7"/>
					<rect x="50" y="13.9" class="st4" width="1.9" height="2"/>
				</g>
			</g>
		</g>
	</g>
	<g id="Layer_5_2_" class="st1">
		<g>
			<g id="Marker_4_">
				<path class="st4" d="M43.2,65.8L43.2,65.8L43.2,65.8z"/>
				<path class="st4" d="M4.4,65.8L4.4,65.8L4.4,65.8z"/>
				<path class="st9" d="M37.1,22.5c-3.9-2.2-8.5-3.5-13.3-3.5C8.8,19-3.3,31.2-3.3,46.3c0,4.2,0.9,8.1,2.6,11.6
					c1.3,2.9,3.1,5.5,5.4,7.8l0,0L22.5,84c0.7,0.8,2,0.8,2.7,0L43,65.8l0,0c2.2-2.2,4-4.9,5.4-7.8C50,54.5,51,50.5,51,46.3
					c0-5-1.3-9.6-3.6-13.6C42.3,31.4,38.4,27.5,37.1,22.5z"/>
			</g>
			<g id="Layer_7_1_">
				<circle id="severityBackgrnd_5_" class="st10" cx="50.9" cy="18.9" r="10"/>
				<g class="st11">
					<g>
						<path d="M51.9,23.9H50v-10h1.9V23.9z"/>
					</g>
				</g>
			</g>
		</g>
	</g>
	<g id="Layer_6_2_" class="st1">
		<g>
			<g id="Marker_5_">
				<path class="st4" d="M43.2,65.8L43.2,65.8L43.2,65.8z"/>
				<path class="st4" d="M4.4,65.8L4.4,65.8L4.4,65.8z"/>
				<path class="st9" d="M37.1,22.5c-3.9-2.2-8.5-3.5-13.3-3.5C8.8,19-3.3,31.2-3.3,46.3c0,4.2,0.9,8.1,2.6,11.6
					c1.3,2.9,3.1,5.5,5.4,7.8l0,0L22.5,84c0.7,0.8,2,0.8,2.7,0L43,65.8l0,0c2.2-2.2,4-4.9,5.4-7.8C50,54.5,51,50.5,51,46.3
					c0-5-1.3-9.6-3.6-13.6C42.3,31.4,38.4,27.5,37.1,22.5z"/>
			</g>
			<g id="Layer_8_1_">
				<circle id="severityBackgrnd_6_" class="st12" cx="50.9" cy="18.9" r="10"/>
				<path class="st4" d="M51.1,22.1c0.5,0,1-0.1,1.3-0.5c0.3-0.3,0.5-0.7,0.6-1.1h2c0,0.6-0.2,1.1-0.5,1.7c-0.3,0.5-0.8,0.9-1.4,1.2
					c-0.6,0.3-1.3,0.5-1.9,0.5c-1.3,0-2.4-0.5-3.2-1.3s-1.2-2.1-1.2-3.6v-0.2c0-1.5,0.4-2.6,1.2-3.5s1.9-1.3,3.2-1.3
					c1.1,0,2.1,0.3,2.8,1s1.1,1.5,1.1,2.6h-2c0-0.5-0.2-1-0.5-1.3s-0.8-0.5-1.3-0.5c-0.7,0-1.3,0.3-1.6,0.7
					c-0.4,0.5-0.6,1.3-0.6,2.3v0.3c0,1.1,0.2,1.8,0.5,2.3C49.9,21.9,50.4,22.1,51.1,22.1z"/>
			</g>
		</g>
	</g>
	<g id="Layer_7_2_" class="st1">
		<g>
			<g id="Marker_6_">
				<path class="st4" d="M43.2,65.8L43.2,65.8L43.2,65.8z"/>
				<path class="st4" d="M4.4,65.8L4.4,65.8L4.4,65.8z"/>
				<path class="st9" d="M37.1,22.5c-3.9-2.2-8.5-3.5-13.3-3.5C8.8,19-3.3,31.2-3.3,46.3c0,4.2,0.9,8.1,2.6,11.6
					c1.3,2.9,3.1,5.5,5.4,7.8l0,0L22.5,84c0.7,0.8,2,0.8,2.7,0L43,65.8l0,0c2.2-2.2,4-4.9,5.4-7.8C50,54.5,51,50.5,51,46.3
					c0-5-1.3-9.6-3.6-13.6C42.3,31.4,38.4,27.5,37.1,22.5z"/>
			</g>
			<g id="Layer_9_1_">
				<circle id="severityBackgrnd_7_" class="st13" cx="50.9" cy="18.9" r="10"/>
				<g class="st14">
					<path class="st4" d="M47.6,21.2c0.4,0,0.7-0.1,1-0.3c0.3-0.2,0.4-0.5,0.4-0.9h1.5c0,0.5-0.1,0.9-0.4,1.2
						c-0.3,0.4-0.6,0.7-1,0.9s-0.9,0.3-1.4,0.3c-1,0-1.7-0.3-2.3-0.9C44.8,21,44.5,20,44.5,19v-0.1c0-1.1,0.3-1.9,0.9-2.5
						c0.6-0.6,1.3-0.9,2.3-0.9c0.8,0,1.5,0.3,2,0.7c0.5,0.5,0.8,1.1,0.8,1.9H49c0-0.4-0.1-0.7-0.4-1c-0.3-0.3-0.6-0.4-1-0.4
						c-0.5,0-0.9,0.2-1.2,0.5S46,18,46,18.8v0.3c0,0.7,0.1,1.3,0.4,1.7C46.7,21,47.1,21.2,47.6,21.2z"/>
					<path class="st4" d="M53.1,15.6l0.1,0.8c0.5-0.6,1.2-0.9,2-0.9c1.5,0,2.2,0.8,2.2,2.5v4.6h-1.5V18c0-0.5-0.1-0.8-0.3-1
						s-0.5-0.3-0.9-0.3c-0.6,0-1.1,0.3-1.4,0.9v4.9h-1.5v-6.9H53.1L53.1,15.6z"/>
				</g>
			</g>
		</g>
	</g>
	<g id="Layer_8_2_" class="st1">
		<g>
			<g id="Marker_7_">
				<path class="st4" d="M43.3,65.8L43.3,65.8L43.3,65.8z"/>
				<path class="st4" d="M4.3,65.8L4.3,65.8L4.3,65.8z"/>
				<path class="st9" d="M37.1,22.5c-4-2.3-8.4-3.6-13.3-3.6c-15,0-27.2,12.3-27.2,27.5c0,4.1,1,8.2,2.6,11.7
					c1.3,2.9,3.1,5.6,5.3,7.7l0,0l17.9,18.3c0.7,0.7,2,0.7,2.7,0L43,65.8l0,0c2.1-2.3,4-4.9,5.3-7.7c1.7-3.6,2.6-7.4,2.6-11.7
					c0-5-1.3-9.6-3.6-13.6C42.4,31.4,38.4,27.5,37.1,22.5z"/>
			</g>
			<g id="Layer_10_1_">
				<circle id="severityBackgrnd_8_" class="st15" cx="51" cy="18.9" r="10"/>
				<g>
					<path class="st4" d="M49.1,22.5c0.4,0,0.7-0.1,1-0.3c0.3-0.1,0.4-0.6,0.4-0.9h1.4c0,0.4-0.1,0.9-0.4,1.1
						c-0.3,0.4-0.6,0.7-1,0.9s-1,0.3-1.4,0.3c-1,0-1.7-0.3-2.3-1C46.2,22,45.9,21,45.9,20v-0.1c0-1,0.3-2,0.9-2.6
						c0.6-0.7,1.3-1,2.3-1c0.9,0,1.6,0.3,2,0.7c0.6,0.4,0.9,1.1,0.9,2h-1.4c0-0.4-0.1-0.7-0.4-1c-0.3-0.3-0.6-0.4-1-0.4
						c-0.6,0-1,0.1-1.1,0.6c-0.3,0.4-0.4,1-0.4,1.7v0.3c0,0.7,0.1,1.3,0.4,1.7C48.1,22.5,48.5,22.5,49.1,22.5z"/>
					<g>
						<path class="st4" d="M56,23.9h-1.9v-10H56V23.9z"/>
					</g>
				</g>
			</g>
		</g>
	</g>
	<g class="st1">
		<path class="st2" d="M34.5,80c-1.2,0-2.3-0.5-3.1-1.4l-15.7-18c-2.2-2.2-4-4.8-5.2-7.6C8.9,49.6,8,45.8,8,41.7
			C8,27,19.9,15,34.5,15h0.1C49.1,15,61,27,61,41.7c0,4-0.9,7.9-2.5,11.3c-1.2,2.7-3,5.3-5.2,7.5l-15.7,18
			C36.8,79.5,35.7,80,34.5,80z"/>
		<path class="st2" d="M34.5,17.5c13.3,0,24,10.9,24,24.2c0,3.7-0.8,7.2-2.3,10.3c-1.1,2.6-2.7,4.9-4.8,6.9L35.7,77
			c-0.3,0.4-0.8,0.5-1.2,0.5s-0.9-0.2-1.2-0.5L17.6,58.9c-2-2-3.6-4.3-4.8-6.9c-1.5-3.1-2.3-6.5-2.3-10.3
			C10.5,28.4,21.2,17.5,34.5,17.5L34.5,17.5L34.5,17.5 M34.5,12.5L34.5,12.5L34.5,12.5L34.5,12.5c-16,0-29,13.1-29,29.2
			c0,4.4,0.9,8.6,2.8,12.4c1.4,3,3.3,5.8,5.6,8.2l15.6,18c1.3,1.4,3.1,2.2,5,2.2c1.9,0,3.7-0.8,5-2.2l15.6-18
			c2.4-2.4,4.3-5.2,5.6-8.2c1.8-3.8,2.8-8,2.8-12.4C63.5,25.6,50.5,12.5,34.5,12.5L34.5,12.5z"/>
	</g>
</g>
<g id="Layer_2_1_" class="st0">
	<path class="st5" d="M34.5,17.5L34.5,17.5L34.5,17.5c-13.3,0-24,10.9-24,24.2c0,3.7,0.8,7.2,2.3,10.3c1.1,2.6,2.7,4.9,4.8,6.9
		L33.3,77c0.3,0.4,0.8,0.5,1.2,0.5s0.9-0.2,1.2-0.5l15.7-18.1c2-2,3.6-4.3,4.8-6.9c1.5-3.1,2.3-6.5,2.3-10.3
		C58.5,28.4,47.8,17.5,34.5,17.5z"/>
</g>
<g id="Layer_3_3_" class="st0">
	<g id="Layer_3_5_" class="st1">
		<g id="severityBackgrnd_26_">
			<path class="st4" d="M57.8,27.5c-5.2,0-9.5-4.3-9.5-9.5s4.3-9.5,9.5-9.5s9.5,4.3,9.5,9.5S63,27.5,57.8,27.5z"/>
			<path class="st4" d="M57.8,10c4.4,0,8,3.6,8,8s-3.6,8-8,8s-8-3.6-8-8C49.8,13.6,53.4,10,57.8,10 M57.8,7c-6.1,0-11,4.9-11,11
				s4.9,11,11,11s11-4.9,11-11S63.8,7,57.8,7L57.8,7z"/>
		</g>
	</g>
</g>
<g id="Layer_4_3_" class="st0">
	<g id="Layer_3_7_" class="st1">
		<circle id="severityBackgrnd_30_" class="st2" cx="57.8" cy="18" r="8"/>
		<g>
			<path class="st4" d="M56.6,22h-1.8L53,14.1h1.7l1,5.8l1.2-5.5h1.7l1.2,5.5l1-5.8h1.7L60.9,22h-1.8l-1.4-5.5L56.6,22z"/>
		</g>
	</g>
</g>
<g id="Layer_6_3_" class="st0">
	<g id="Layer_4_5_" class="st1">
		<circle id="severityBackgrnd_22_" class="st7" cx="57.8" cy="18" r="8"/>
		<g>
			<path class="st4" d="M59.7,16.4c-0.2,0-0.4,0.1-0.6,0.2s-0.2,0.2-0.3,0.4c-0.1,0.2-0.1,0.4-0.2,0.6c-0.1,0.2-0.1,0.6-0.1,0.7
				l0,2.7h-1.4l0.1-3.6c0-0.3-0.1-0.6-0.2-0.8c-0.2-0.2-0.3-0.2-0.6-0.2c-0.2,0-0.4,0.1-0.6,0.2s-0.2,0.2-0.3,0.4s-0.1,0.4-0.2,0.6
				c-0.1,0.2-0.1,0.6-0.1,0.7L55.1,21h-1.4l0.1-5.8h1.4l0.1,0.7c0.1-0.1,0.1-0.2,0.2-0.2c0.2-0.1,0.2-0.2,0.3-0.2
				c0.1-0.1,0.2-0.2,0.4-0.2c0.2-0.1,0.3-0.1,0.6-0.1c0.7,0,1.3,0.2,1.5,0.9c0.2-0.2,0.4-0.4,0.6-0.6c0.2-0.2,0.6-0.2,1-0.2
				c0.7,0,1.2,0.2,1.5,0.6c0.3,0.3,0.5,1,0.5,1.7l-0.1,3.7h-1.4l0.1-3.6c0-0.3-0.1-0.6-0.2-0.8C60.1,16.4,59.9,16.4,59.7,16.4z"/>
		</g>
	</g>
</g>
<g id="Layer_7_3_" class="st0">
	<g id="Layer_3_6_" class="st1">
		<g>
			<g id="Layer_5_6_">
				<circle id="severityBackgrnd_27_" class="st8" cx="57.8" cy="18" r="8"/>
				<g>
					<path class="st4" d="M61.6,14v8h-1.5v-5.4l-1.8,3.5h-1.1l-1.7-3.4V22H54v-8h1.7l2.1,4.4l2.2-4.5L61.6,14z"/>
				</g>
			</g>
		</g>
	</g>
</g>
<g id="Layer_8_3_" class="st0">
	<g id="Layer_4_4_" class="st1">
		<g>
			<g id="Layer_6_5_">
				<circle id="severityBackgrnd_19_" class="st9" cx="57.8" cy="18" r="8"/>
				<g>
					<rect x="57.1" y="16.8" class="st4" width="1.5" height="5.4"/>
					<rect x="57.1" y="14" class="st4" width="1.5" height="1.6"/>
				</g>
			</g>
		</g>
	</g>
</g>
<g id="Layer_9_2_" class="st0">
	<g id="Layer_5_3_" class="st1">
		<g>
			<g id="Layer_7_7_">
				<circle id="severityBackgrnd_23_" class="st10" cx="57.8" cy="18" r="8"/>
				<g class="st11">
					<g>
						<path d="M58.6,22h-1.5v-8h1.5V22z"/>
					</g>
				</g>
			</g>
		</g>
	</g>
</g>
<g id="Layer_10_2_" class="st0">
	<g id="Layer_6_4_" class="st1">
		<g>
			<g id="Layer_8_4_">
				<circle id="severityBackgrnd_16_" class="st12" cx="57.8" cy="18" r="8"/>
				<path class="st4" d="M57.9,20.7c0.4,0,0.8-0.1,1-0.4c0.2-0.2,0.4-0.6,0.5-0.9H61c0,0.5-0.2,0.9-0.4,1.4c-0.2,0.4-0.6,0.7-1.1,1
					c-0.5,0.2-1,0.4-1.5,0.4c-1,0-1.9-0.4-2.6-1s-1-1.7-1-2.9V18c0-1.2,0.3-2.1,1-2.8c0.6-0.7,1.5-1,2.6-1c0.9,0,1.7,0.2,2.2,0.8
					c0.6,0.6,0.9,1.2,0.9,2.1h-1.6c0-0.4-0.2-0.8-0.4-1c-0.2-0.2-0.6-0.4-1-0.4c-0.6,0-1,0.2-1.3,0.6c-0.3,0.4-0.5,1-0.5,1.8v0.2
					c0,0.9,0.2,1.4,0.4,1.8C57,20.4,57.4,20.7,57.9,20.7z"/>
			</g>
		</g>
	</g>
</g>
<g id="Layer_11" class="st0">
	<g id="Layer_7_6_" class="st1">
		<g>
			<g id="Layer_9_4_">
				<circle id="severityBackgrnd_18_" class="st13" cx="57.8" cy="18" r="8"/>
				<g class="st14">
					<path class="st4" d="M55.1,20c0.3,0,0.6-0.1,0.8-0.2c0.2-0.2,0.3-0.4,0.3-0.7h1.2c0,0.4-0.1,0.7-0.3,1s-0.5,0.6-0.8,0.7
						C56,21,55.6,21,55.2,21c-0.8,0-1.4-0.2-1.8-0.7c-0.5-0.5-0.7-1.2-0.7-2.1V18c0-0.9,0.2-1.5,0.7-2s1-0.7,1.8-0.7
						c0.6,0,1.2,0.2,1.6,0.6c0.4,0.4,0.6,0.9,0.6,1.5h-1.2c0-0.3-0.1-0.6-0.3-0.8c-0.2-0.2-0.5-0.3-0.8-0.3c-0.4,0-0.7,0.2-1,0.4
						c-0.2,0.3-0.3,0.7-0.3,1.4v0.2c0,0.6,0.1,1,0.3,1.4C54.4,19.8,54.7,20,55.1,20z"/>
					<path class="st4" d="M59.5,15.4l0.1,0.6c0.4-0.5,1-0.7,1.6-0.7c1.2,0,1.8,0.6,1.8,2V21h-1.2v-3.6c0-0.4-0.1-0.6-0.2-0.8
						c-0.2-0.2-0.4-0.2-0.7-0.2c-0.5,0-0.9,0.2-1.1,0.7V21h-1.2v-5.5L59.5,15.4L59.5,15.4z"/>
				</g>
			</g>
		</g>
	</g>
</g>
<g id="Layer_12" class="st0">
	<g class="st1">
		<path class="st15" d="M57.8,10c-4.4,0-8,3.6-8,8s3.6,8,8,8s8-3.6,8-8S62.2,10,57.8,10z"/>
		<path class="st4" d="M54.8,20.1c0.2,0.3,0.5,0.4,1,0.4c0.3,0,0.6-0.1,0.8-0.3c0.2-0.2,0.3-0.4,0.3-0.7H58c0,0.4-0.1,0.7-0.3,1
			s-0.5,0.5-0.9,0.7s-0.7,0.3-1.1,0.3c-0.8,0-1.4-0.3-1.9-0.7c-0.5-0.5-0.7-1.2-0.7-2.1v-0.1c0-0.9,0.2-1.5,0.7-2s1.1-0.7,1.9-0.7
			c0.7,0,1.2,0.2,1.7,0.6c0.4,0.4,0.6,0.9,0.6,1.5h-1.2c0-0.3-0.1-0.6-0.3-0.8c-0.2-0.2-0.5-0.3-0.8-0.3c-0.4,0-0.7,0.2-1,0.4
			c-0.2,0.3-0.3,0.7-0.3,1.3v0.2C54.5,19.3,54.6,19.7,54.8,20.1z"/>
		<rect x="59.9" y="13.5" class="st4" width="1.4" height="8"/>
	</g>
</g>
</svg>
