<?xml version="1.0" encoding="UTF-8" standalone="no"?>
<svg width="24px" height="24px" viewBox="0 0 24 24" version="1.1" xmlns="http://www.w3.org/2000/svg" xmlns:xlink="http://www.w3.org/1999/xlink">
    <!-- Generator: Sketch 46.2 (44496) - http://www.bohemiancoding.com/sketch -->
    <title>Icons/Material/Navigation/Black/fullscreen exit</title>
    <desc>Created with Sketch.</desc>
    <defs></defs>
    <g id="Icons---Material-Design" stroke="none" stroke-width="1" fill="none" fill-rule="evenodd">
        <g id="Underlay" transform="translate(-1218.000000, -4718.000000)" fill="#FFFFFF">
            <rect id="Rectangle-Copy" x="581" y="0" width="948" height="6412.17969"></rect>
        </g>
        <g id="Icons/Material/Navigation/Black/fullscreen-exit" fill="#000000">
            <path d="M5,16 L8,16 L8,19 L10,19 L10,14 L5,14 L5,16 L5,16 Z M8,8 L5,8 L5,10 L10,10 L10,5 L8,5 L8,8 L8,8 Z M14,19 L16,19 L16,16 L19,16 L19,14 L14,14 L14,19 L14,19 Z M16,8 L16,5 L14,5 L14,10 L19,10 L19,8 L16,8 L16,8 Z" id="Shape"></path>
        </g>
    </g>
</svg>