<?xml version="1.0" encoding="UTF-8" standalone="no"?>
<svg width="24px" height="24px" viewBox="0 0 24 24" version="1.1" xmlns="http://www.w3.org/2000/svg" xmlns:xlink="http://www.w3.org/1999/xlink">
    <!-- Generator: Sketch 46.2 (44496) - http://www.bohemiancoding.com/sketch -->
    <title>Icons/Material/Navigation/Black/fullscreen</title>
    <desc>Created with Sketch.</desc>
    <defs></defs>
    <g id="Icons---Material-Design" stroke="none" stroke-width="1" fill="none" fill-rule="evenodd">
        <g id="Underlay" transform="translate(-1170.000000, -4718.000000)" fill="#FFFFFF">
            <rect id="Rectangle-Copy" x="581" y="0" width="948" height="6412.17969"></rect>
        </g>
        <g id="Icons/Material/Navigation/Black/fullscreen" fill="#000000">
            <path d="M7,14 L5,14 L5,19 L10,19 L10,17 L7,17 L7,14 L7,14 Z M5,10 L7,10 L7,7 L10,7 L10,5 L5,5 L5,10 L5,10 Z M17,17 L14,17 L14,19 L19,19 L19,14 L17,14 L17,17 L17,17 Z M14,5 L14,7 L17,7 L17,10 L19,10 L19,5 L14,5 L14,5 Z" id="Shape"></path>
        </g>
    </g>
</svg>