<?xml version="1.0" encoding="utf-8"?>
<!-- Generator: Adobe Illustrator 21.0.0, SVG Export Plug-In . SVG Version: 6.00 Build 0)  -->
<svg version="1.1" id="Layer_1" xmlns="http://www.w3.org/2000/svg" xmlns:xlink="http://www.w3.org/1999/xlink" x="0px" y="0px"
	 viewBox="0 0 32 32" style="enable-background:new 0 0 32 32;" xml:space="preserve">
<style type="text/css">
	
	.st1{fill:#FFFFFF;}
</style>
<circle id="severityBackgrnd"  style="fill:#FFCC00" cx="16" cy="16.1" r="15"/>
<g>
	<path class="st1" d="M19.5,12.5c-0.4,0-0.8,0.1-1.1,0.3c-0.3,0.2-0.5,0.5-0.6,0.8s-0.2,0.7-0.3,1.1c-0.1,0.4-0.1,1-0.1,1.4
		l-0.1,5.2h-2.7l0.1-6.8c0-0.6-0.1-1.2-0.4-1.5c-0.3-0.3-0.6-0.5-1-0.5s-0.8,0.1-1.1,0.3s-0.5,0.4-0.6,0.8c-0.1,0.3-0.2,0.7-0.3,1.1
		c-0.1,0.4-0.1,1-0.1,1.4l-0.1,5.2H8.4l0.1-11H11l0.1,1.4c0.1-0.2,0.2-0.3,0.4-0.5s0.4-0.4,0.6-0.5c0.2-0.2,0.5-0.3,0.8-0.4
		c0.3-0.1,0.6-0.1,1-0.1c1.4,0,2.4,0.5,2.9,1.6c0.3-0.4,0.7-0.8,1.1-1.1c0.5-0.3,1.1-0.5,1.9-0.5c1.3,0,2.2,0.4,2.9,1.1
		s0.9,1.9,0.9,3.1l-0.1,6.9h-2.7l0.1-6.8c0-0.6-0.1-1.2-0.4-1.5C20.3,12.7,19.9,12.5,19.5,12.5z"/>
</g>
</svg>
