<svg xmlns="http://www.w3.org/2000/svg" width="18" height="18" viewBox="0 0 18 18"><title>ic_condition_kpi</title><g id="Icons"><path d="M9,2a7,7,0,1,0,7,7A7,7,0,0,0,9,2ZM5.24,10.18a1,1,0,0,0,.84.37,1.15,1.15,0,0,0,.7-.23.75.75,0,0,0,.28-.61h1a1.3,1.3,0,0,1-.28.84,1.74,1.74,0,0,1-.7.61,2.33,2.33,0,0,1-1,.23,2.18,2.18,0,0,1-1.63-.65,2.53,2.53,0,0,1-.61-1.82V8.83a2.41,2.41,0,0,1,.61-1.77A2.18,2.18,0,0,1,6.13,6.4a2,2,0,0,1,1.4.51,1.73,1.73,0,0,1,.56,1.35h-1a1,1,0,0,0-1-1,1.09,1.09,0,0,0-.84.37A2.05,2.05,0,0,0,5,8.83V9A2,2,0,0,0,5.24,10.18Zm7.7,1.26H11.87V8.27a1,1,0,0,0-.19-.7A.92.92,0,0,0,11,7.34a1.06,1.06,0,0,0-1,.61V11.4H9V6.59h1l0,.56a1.82,1.82,0,0,1,1.4-.65c1,0,1.54.56,1.54,1.73Z" fill="#607d8b"/></g></svg>