<svg xmlns="http://www.w3.org/2000/svg" width="18" height="18" viewBox="0 0 18 18"><title>ic_critical_kpi</title><g id="Icons"><path d="M9,2a7,7,0,1,0,7,7A7,7,0,0,0,9,2ZM8,10.73a1.19,1.19,0,0,0,1.07.56A1.27,1.27,0,0,0,10,11a1.47,1.47,0,0,0,.42-.79h1.4a2.31,2.31,0,0,1-1.35,2,3.39,3.39,0,0,1-1.35.33,2.92,2.92,0,0,1-2.24-.93A3.57,3.57,0,0,1,6.08,9V8.91a3.61,3.61,0,0,1,.84-2.47A2.77,2.77,0,0,1,9.16,5.5a2.8,2.8,0,0,1,2,.7A2.53,2.53,0,0,1,11.92,8h-1.4A1.28,1.28,0,0,0,9.21,6.71a1.36,1.36,0,0,0-1.12.51,2.63,2.63,0,0,0-.42,1.63v.23A3,3,0,0,0,8,10.73Z" fill="#be0006"/></g></svg>