<svg xmlns="http://www.w3.org/2000/svg" width="18" height="18" viewBox="0 0 18 18"><title>ic_cleared_kpi</title><g id="Icons"><path d="M9,2a7,7,0,1,0,7,7A7,7,0,0,0,9,2ZM6.39,10.77a1,1,0,0,0,.84.37,1.15,1.15,0,0,0,.7-.23.75.75,0,0,0,.28-.61h1a1.3,1.3,0,0,1-.28.84,1.6,1.6,0,0,1-.75.61,2.51,2.51,0,0,1-1,.23,2.18,2.18,0,0,1-1.63-.65A2.65,2.65,0,0,1,5,9.47V9.37A2.41,2.41,0,0,1,5.59,7.6a2,2,0,0,1,1.63-.65,2.1,2.1,0,0,1,1.45.51,1.73,1.73,0,0,1,.56,1.35h-1a1,1,0,0,0-1-1,1,1,0,0,0-.84.37,2.05,2.05,0,0,0-.28,1.17v.19A2.22,2.22,0,0,0,6.39,10.77ZM12.08,12H10.82V5h1.26Z" fill="#06bfa9"/></g></svg>