<svg xmlns="http://www.w3.org/2000/svg" width="18" height="18" viewBox="0 0 18 18"><title>ic_minor_kpi</title><g id="Icons"><path d="M9,2a7,7,0,1,0,7,7A7,7,0,0,0,9,2Zm3.5,9.43H11.24l0-3.17a1,1,0,0,0-.19-.7.57.57,0,0,0-.47-.23.94.94,0,0,0-.51.14.73.73,0,0,0-.28.37c0,.14-.09.33-.14.51a3.08,3.08,0,0,0,0,.65l0,2.43H8.35l0-3.17a1,1,0,0,0-.19-.7.65.65,0,0,0-.47-.23.94.94,0,0,0-.51.14.58.58,0,0,0-.28.37c0,.14-.09.33-.14.51a3.08,3.08,0,0,0,0,.65l0,2.43H5.45l0-5.13H6.67l0,.65a.82.82,0,0,1,.19-.23,1.24,1.24,0,0,1,.28-.23.94.94,0,0,1,.37-.19,1.44,1.44,0,0,1,.47,0A1.34,1.34,0,0,1,9.37,7a2.67,2.67,0,0,1,.51-.51,1.66,1.66,0,0,1,.89-.23,1.79,1.79,0,0,1,1.35.51,2.06,2.06,0,0,1,.42,1.45Z" fill="#fc0"/></g></svg>