<svg id="Icons" xmlns="http://www.w3.org/2000/svg" width="24" height="24" viewBox="0 0 24 24"><title>ic_object_in_hierarchy</title><path d="M7.13,7.45A1.83,1.83,0,0,0,9,5.64H20V3.82H9A1.83,1.83,0,0,0,7.13,2H5.29A1.83,1.83,0,0,0,3.45,3.82V5.64A1.83,1.83,0,0,0,5.29,7.45v5.45h4.85a1.84,1.84,0,0,0,1.58.91v2.73a1.83,1.83,0,0,0-1.84,1.82v1.82A1.83,1.83,0,0,0,11.73,22h1.84a1.83,1.83,0,0,0,1.84-1.82H20V18.36H15.4a1.83,1.83,0,0,0-1.84-1.82h0V13.82h0a1.84,1.84,0,0,0,1.58-.91H20V11.09H15.4v-.91a1.83,1.83,0,0,0-1.84-1.82H11.73a1.83,1.83,0,0,0-1.84,1.82v.91H7.13V7.45Z" fill="#000001"/></svg>