<?xml version="1.0" encoding="utf-8"?>
<!-- Generator: Adobe Illustrator 21.1.0, SVG Export Plug-In . SVG Version: 6.00 Build 0)  -->
<svg version="1.1" xmlns="http://www.w3.org/2000/svg" xmlns:xlink="http://www.w3.org/1999/xlink" x="0px" y="0px"
	 viewBox="0 0 65 76" style="enable-background:new 0 0 65 76;" xml:space="preserve">
<style type="text/css">
	.st0{display:none;}
	.st1{display:inline;}
	.st2{fill:#FFFFFF;}
	.st3{fill:#9E9E9E;}
	.st4{fill:#42A5F5;}
	.st5{display:inline;fill:#FFCC00;}
	.st6{display:inline;fill:#FF7900;}
	.st7{display:inline;fill:#9E9E9E;}
	.st8{display:inline;fill:#D7CCC8;}
	.st9{display:inline;opacity:0.54;}
	.st10{display:inline;fill:#BE0006;}
	.st11{display:inline;fill:#FFFFFF;}
	.st12{display:inline;fill:#607D8B;}
	.st13{display:inline;enable-background:new    ;}
	.st14{display:inline;fill:#06BFA9;}
	.st15{fill:#FFCC00;}
	.st16{fill:#FF7900;}
	.st17{fill:#D7CCC8;}
	.st18{opacity:0.54;}
	.st19{fill:#BE0006;}
	.st20{fill:#607D8B;}
	.st21{enable-background:new    ;}
	.st22{fill:#06BFA9;}
</style>
<g id="Layer_1" class="st0">
	<g class="st1">
		<g id="Marker">
			<path class="st2" d="M46.9,57L46.9,57L46.9,57z"/>
			<path class="st2" d="M8.1,57L8.1,57L8.1,57z"/>
			<path class="st3" d="M40.8,13.7c-3.9-2.2-8.5-3.5-13.3-3.5c-15,0-27.1,12.3-27.1,27.4c0,4.2,0.9,8.1,2.6,11.6
				c1.3,2.9,3.1,5.5,5.4,7.8l0,0l17.8,18.3c0.7,0.8,2,0.8,2.7,0L46.7,57l0,0c2.2-2.2,4-4.9,5.4-7.8c1.6-3.5,2.6-7.5,2.6-11.6
				c0-5-1.3-9.6-3.6-13.6C46,22.6,42.1,18.7,40.8,13.7z"/>
		</g>
		<g id="Layer_3">
			<circle id="severityBackgrnd_15_" class="st4" cx="54.6" cy="10.1" r="10"/>
			<g>
				<path class="st2" d="M53.1,15.1h-2.2l-2.2-9.9h2.1l1.3,7.2l1.5-6.9h2.1l1.5,6.9l1.3-7.2h2.1l-2.1,9.9h-2.2l-1.7-6.9L53.1,15.1z"
					/>
			</g>
		</g>
	</g>
	<g id="Layer_4">
		<circle id="severityBackgrnd_14_" class="st5" cx="49.2" cy="-4.3" r="10"/>
		<g class="st1">
			<path class="st2" d="M51.6-6.4c-0.3,0-0.5,0.1-0.7,0.2s-0.3,0.3-0.4,0.5c-0.1,0.2-0.1,0.5-0.2,0.7c-0.1,0.3-0.1,0.7-0.1,0.9
				l-0.1,3.5h-1.8l0.1-4.5c0-0.4-0.1-0.8-0.3-1s-0.4-0.3-0.7-0.3s-0.5,0.1-0.7,0.2s-0.3,0.3-0.4,0.5c-0.1,0.2-0.1,0.5-0.2,0.7
				C46-4.7,46-4.3,46-4.1l-0.1,3.5h-1.8l0.1-7.3h1.7L46-7c0.1-0.1,0.1-0.2,0.3-0.3s0.3-0.3,0.4-0.3c0.1-0.1,0.3-0.2,0.5-0.3
				C47.4-8,47.6-8,47.9-8c0.9,0,1.6,0.3,1.9,1.1c0.2-0.3,0.5-0.5,0.7-0.7c0.3-0.2,0.7-0.3,1.3-0.3c0.9,0,1.5,0.3,1.9,0.7
				s0.6,1.3,0.6,2.1l-0.1,4.6h-1.8L52.5-5c0-0.4-0.1-0.8-0.3-1C52.1-6.3,51.8-6.4,51.6-6.4z"/>
		</g>
	</g>
	<g id="Layer_5">
		<circle id="severityBackgrnd_13_" class="st6" cx="49.2" cy="-4.3" r="10"/>
		<g class="st1">
			<path class="st2" d="M54-9.3v10h-1.9V-6l-2.2,4.4h-1.4l-2.1-4.2v6.6h-1.9v-10h2.1l2.6,5.5l2.7-5.6C51.9-9.3,54-9.3,54-9.3z"/>
		</g>
	</g>
	<g id="Layer_6">
		<circle id="severityBackgrnd_12_" class="st7" cx="49.2" cy="-4.3" r="10"/>
		<g class="st1">
			<rect x="48.3" y="-5.9" class="st2" width="1.9" height="6.7"/>
			<rect x="48.3" y="-9.3" class="st2" width="1.9" height="2"/>
		</g>
	</g>
	<g id="Layer_7">
		<circle id="severityBackgrnd_11_" class="st8" cx="49.2" cy="-4.3" r="10"/>
		<g class="st9">
			<g>
				<path d="M50.2,0.7h-1.9v-10h1.9V0.7z"/>
			</g>
		</g>
	</g>
	<g id="Layer_8">
		<circle id="severityBackgrnd_10_" class="st10" cx="49.2" cy="-4.3" r="10"/>
		<path class="st11" d="M49.4-1c0.5,0,1-0.1,1.3-0.5c0.3-0.3,0.5-0.7,0.6-1.1h2c0,0.6-0.2,1.1-0.5,1.7C52.5-0.4,52,0,51.4,0.3
			c-0.6,0.3-1.3,0.5-1.9,0.5c-1.3,0-2.4-0.5-3.2-1.3s-1.2-2.1-1.2-3.6v-0.2c0-1.5,0.4-2.6,1.2-3.5s1.9-1.3,3.2-1.3
			c1.1,0,2.1,0.3,2.8,1s1.1,1.5,1.1,2.6h-2c0-0.5-0.2-1-0.5-1.3s-0.8-0.5-1.3-0.5c-0.7,0-1.3,0.3-1.6,0.7c-0.4,0.5-0.6,1.3-0.6,2.3
			V-4c0,1.1,0.2,1.8,0.5,2.3C48.2-1.3,48.7-1,49.4-1z"/>
	</g>
	<g id="Layer_9">
		<circle id="severityBackgrnd_9_" class="st12" cx="49.2" cy="-4.3" r="10"/>
		<g class="st13">
			<path class="st2" d="M45.9-1.9c0.4,0,0.7-0.1,1-0.3s0.4-0.5,0.4-0.9h1.5c0,0.5-0.1,0.9-0.4,1.2c-0.3,0.4-0.6,0.7-1,0.9
				C47-0.8,46.5-0.7,46-0.7c-1,0-1.7-0.3-2.3-0.9s-0.9-1.5-0.9-2.6v-0.1c0-1.1,0.3-1.9,0.9-2.5C44.3-7.4,45-7.7,46-7.7
				c0.8,0,1.5,0.3,2,0.7c0.5,0.5,0.8,1.1,0.8,1.9h-1.5c0-0.4-0.1-0.7-0.4-1c-0.3-0.3-0.6-0.4-1-0.4c-0.5,0-0.9,0.2-1.2,0.5
				c-0.3,0.4-0.4,0.9-0.4,1.7V-4c0,0.7,0.1,1.3,0.4,1.7C45-2.1,45.4-1.9,45.9-1.9z"/>
			<path class="st2" d="M51.4-7.6l0.1,0.8c0.5-0.6,1.2-0.9,2-0.9c1.5,0,2.2,0.8,2.2,2.5v4.6h-1.5v-4.5c0-0.5-0.1-0.8-0.3-1
				S53.4-6.4,53-6.4c-0.6,0-1.1,0.3-1.4,0.9v4.9h-1.5v-6.9h1.3V-7.6z"/>
		</g>
	</g>
	<g id="Layer_10">
		<circle id="severityBackgrnd_1_" class="st14" cx="49.2" cy="-4.3" r="10"/>
		<g class="st1">
			<path class="st2" d="M47.4-0.5c0.4,0,0.7-0.1,1-0.3c0.3-0.2,0.4-0.5,0.4-0.9h1.5c0,0.5-0.1,0.9-0.4,1.2c-0.3,0.4-0.6,0.7-1.1,0.9
				c-0.5,0.2-0.9,0.3-1.4,0.3c-1,0-1.7-0.3-2.3-0.9c-0.6-0.7-0.9-1.5-0.9-2.7V-3c0-1.1,0.3-1.9,0.9-2.5c0.6-0.7,1.3-0.9,2.3-0.9
				c0.9,0,1.5,0.3,2.1,0.7c0.5,0.5,0.8,1.1,0.8,1.9h-1.5c0-0.4-0.1-0.7-0.4-1c-0.3-0.3-0.6-0.4-1-0.4c-0.5,0-0.9,0.2-1.2,0.5
				c-0.3,0.4-0.4,0.9-0.4,1.7v0.3c0,0.7,0.1,1.3,0.4,1.7C46.4-0.7,46.8-0.5,47.4-0.5z"/>
			<g>
				<path class="st2" d="M54.3,0.7h-1.8v-10h1.8V0.7z"/>
			</g>
		</g>
	</g>
</g>
<g id="Layer_2" class="st0">
	<g class="st1">
		<g id="Marker_1_">
			<path class="st2" d="M46.9,57L46.9,57L46.9,57z"/>
			<path class="st2" d="M8.1,57L8.1,57L8.1,57z"/>
			<path class="st3" d="M40.8,13.7c-3.9-2.2-8.5-3.5-13.3-3.5c-15,0-27.1,12.3-27.1,27.4c0,4.2,0.9,8.1,2.6,11.6
				c1.3,2.9,3.1,5.5,5.4,7.8l0,0l17.8,18.3c0.7,0.8,2,0.8,2.7,0L46.7,57l0,0c2.2-2.2,4-4.9,5.4-7.8c1.6-3.5,2.6-7.5,2.6-11.6
				c0-5-1.3-9.6-3.6-13.6C46,22.6,42.1,18.7,40.8,13.7z"/>
		</g>
		<g id="Layer_4_1_">
			<circle id="severityBackgrnd_2_" class="st15" cx="54.6" cy="10.1" r="10"/>
			<g>
				<path class="st2" d="M57,8c-0.3,0-0.5,0.1-0.7,0.2S56,8.5,55.9,8.7c-0.1,0.2-0.1,0.5-0.2,0.7c-0.1,0.3-0.1,0.7-0.1,0.9l-0.1,3.5
					h-1.8l0.1-4.5c0-0.4-0.1-0.8-0.3-1S53.1,8,52.8,8s-0.5,0.1-0.7,0.2s-0.3,0.3-0.4,0.5c-0.1,0.2-0.1,0.5-0.2,0.7
					c-0.1,0.3-0.1,0.7-0.1,0.9l-0.1,3.5h-1.8l0.1-7.3h1.7l0.1,0.9c0.1-0.1,0.1-0.2,0.3-0.3s0.3-0.3,0.4-0.3c0.1-0.1,0.3-0.2,0.5-0.3
					c0.2-0.1,0.4-0.1,0.7-0.1c0.9,0,1.6,0.3,1.9,1.1c0.2-0.3,0.5-0.5,0.7-0.7c0.3-0.2,0.7-0.3,1.3-0.3c0.9,0,1.5,0.3,1.9,0.7
					s0.6,1.3,0.6,2.1l-0.1,4.6h-1.8l0.1-4.5c0-0.4-0.1-0.8-0.3-1C57.5,8.1,57.2,8,57,8z"/>
			</g>
		</g>
	</g>
</g>
<g id="Layer_3_1_" class="st0">
	<g class="st1">
		<g id="Marker_2_">
			<path class="st2" d="M46.9,57L46.9,57L46.9,57z"/>
			<path class="st2" d="M8.1,57L8.1,57L8.1,57z"/>
			<path class="st3" d="M40.8,13.7c-3.9-2.2-8.5-3.5-13.3-3.5c-15,0-27.1,12.3-27.1,27.4c0,4.2,0.9,8.1,2.6,11.6
				c1.3,2.9,3.1,5.5,5.4,7.8l0,0l17.8,18.3c0.7,0.8,2,0.8,2.7,0L46.7,57l0,0c2.2-2.2,4-4.9,5.4-7.8c1.6-3.5,2.6-7.5,2.6-11.6
				c0-5-1.3-9.6-3.6-13.6C46,22.6,42.1,18.7,40.8,13.7z"/>
		</g>
		<g id="Layer_5_1_">
			<circle id="severityBackgrnd_3_" class="st16" cx="54.6" cy="10.1" r="10"/>
			<g>
				<path class="st2" d="M59.4,5.1v10h-1.9V8.4l-2.2,4.4h-1.4l-2.1-4.2v6.6h-1.9v-10H52l2.6,5.5l2.7-5.6C57.3,5.1,59.4,5.1,59.4,5.1
					z"/>
			</g>
		</g>
	</g>
</g>
<g id="Layer_4_2_" class="st0">
	<g class="st1">
		<g id="Marker_3_">
			<path class="st2" d="M46.9,57L46.9,57L46.9,57z"/>
			<path class="st2" d="M8.1,57L8.1,57L8.1,57z"/>
			<path class="st3" d="M40.8,13.7c-3.9-2.2-8.5-3.5-13.3-3.5c-15,0-27.1,12.3-27.1,27.4c0,4.2,0.9,8.1,2.6,11.6
				c1.3,2.9,3.1,5.5,5.4,7.8l0,0l17.8,18.3c0.7,0.8,2,0.8,2.7,0L46.7,57l0,0c2.2-2.2,4-4.9,5.4-7.8c1.6-3.5,2.6-7.5,2.6-11.6
				c0-5-1.3-9.6-3.6-13.6C46,22.6,42.1,18.7,40.8,13.7z"/>
		</g>
		<g id="Layer_6_1_">
			<circle id="severityBackgrnd_4_" class="st3" cx="54.6" cy="10.1" r="10"/>
			<g>
				<rect x="53.7" y="8.5" class="st2" width="1.9" height="6.7"/>
				<rect x="53.7" y="5.1" class="st2" width="1.9" height="2"/>
			</g>
		</g>
	</g>
</g>
<g id="Layer_5_2_" class="st0">
	<g class="st1">
		<g id="Marker_4_">
			<path class="st2" d="M46.9,57L46.9,57L46.9,57z"/>
			<path class="st2" d="M8.1,57L8.1,57L8.1,57z"/>
			<path class="st3" d="M40.8,13.7c-3.9-2.2-8.5-3.5-13.3-3.5c-15,0-27.1,12.3-27.1,27.4c0,4.2,0.9,8.1,2.6,11.6
				c1.3,2.9,3.1,5.5,5.4,7.8l0,0l17.8,18.3c0.7,0.8,2,0.8,2.7,0L46.7,57l0,0c2.2-2.2,4-4.9,5.4-7.8c1.6-3.5,2.6-7.5,2.6-11.6
				c0-5-1.3-9.6-3.6-13.6C46,22.6,42.1,18.7,40.8,13.7z"/>
		</g>
		<g id="Layer_7_1_">
			<circle id="severityBackgrnd_5_" class="st17" cx="54.6" cy="10.1" r="10"/>
			<g class="st18">
				<g>
					<path d="M55.6,15.1h-1.9v-10h1.9V15.1z"/>
				</g>
			</g>
		</g>
	</g>
</g>
<g id="Layer_6_2_">
	<g>
		<g id="Marker_5_">
			<path class="st2" d="M46.9,57L46.9,57L46.9,57z"/>
			<path class="st2" d="M8.1,57L8.1,57L8.1,57z"/>
			<path class="st3" d="M40.8,13.7c-3.9-2.2-8.5-3.5-13.3-3.5c-15,0-27.1,12.3-27.1,27.4c0,4.2,0.9,8.1,2.6,11.6
				c1.3,2.9,3.1,5.5,5.4,7.8l0,0l17.8,18.3c0.7,0.8,2,0.8,2.7,0L46.7,57l0,0c2.2-2.2,4-4.9,5.4-7.8c1.6-3.5,2.6-7.5,2.6-11.6
				c0-5-1.3-9.6-3.6-13.6C46,22.6,42.1,18.7,40.8,13.7z"/>
		</g>
		<g id="Layer_8_1_">
			<circle id="severityBackgrnd_6_" class="st19" cx="54.6" cy="10.1" r="10"/>
			<path class="st2" d="M54.8,13.4c0.5,0,1-0.1,1.3-0.5c0.3-0.3,0.5-0.7,0.6-1.1h2c0,0.6-0.2,1.1-0.5,1.7c-0.3,0.5-0.8,0.9-1.4,1.2
				c-0.6,0.3-1.3,0.5-1.9,0.5c-1.3,0-2.4-0.5-3.2-1.3s-1.2-2.1-1.2-3.6v-0.2c0-1.5,0.4-2.6,1.2-3.5s1.9-1.3,3.2-1.3
				c1.1,0,2.1,0.3,2.8,1s1.1,1.5,1.1,2.6h-2c0-0.5-0.2-1-0.5-1.3S55.5,7.1,55,7.1c-0.7,0-1.3,0.3-1.6,0.7c-0.4,0.5-0.6,1.3-0.6,2.3
				v0.3c0,1.1,0.2,1.8,0.5,2.3C53.6,13.1,54.1,13.4,54.8,13.4z"/>
		</g>
	</g>
</g>
<g id="Layer_7_2_" class="st0">
	<g class="st1">
		<g id="Marker_6_">
			<path class="st2" d="M46.9,57L46.9,57L46.9,57z"/>
			<path class="st2" d="M8.1,57L8.1,57L8.1,57z"/>
			<path class="st3" d="M40.8,13.7c-3.9-2.2-8.5-3.5-13.3-3.5c-15,0-27.1,12.3-27.1,27.4c0,4.2,0.9,8.1,2.6,11.6
				c1.3,2.9,3.1,5.5,5.4,7.8l0,0l17.8,18.3c0.7,0.8,2,0.8,2.7,0L46.7,57l0,0c2.2-2.2,4-4.9,5.4-7.8c1.6-3.5,2.6-7.5,2.6-11.6
				c0-5-1.3-9.6-3.6-13.6C46,22.6,42.1,18.7,40.8,13.7z"/>
		</g>
		<g id="Layer_9_1_">
			<circle id="severityBackgrnd_7_" class="st20" cx="54.6" cy="10.1" r="10"/>
			<g class="st21">
				<path class="st2" d="M51.3,12.5c0.4,0,0.7-0.1,1-0.3s0.4-0.5,0.4-0.9h1.5c0,0.5-0.1,0.9-0.4,1.2c-0.3,0.4-0.6,0.7-1,0.9
					c-0.4,0.2-0.9,0.3-1.4,0.3c-1,0-1.7-0.3-2.3-0.9s-0.9-1.5-0.9-2.6v-0.1c0-1.1,0.3-1.9,0.9-2.5c0.6-0.6,1.3-0.9,2.3-0.9
					c0.8,0,1.5,0.3,2,0.7c0.5,0.5,0.8,1.1,0.8,1.9h-1.5c0-0.4-0.1-0.7-0.4-1c-0.3-0.3-0.6-0.4-1-0.4c-0.5,0-0.9,0.2-1.2,0.5
					c-0.3,0.4-0.4,0.9-0.4,1.7v0.3c0,0.7,0.1,1.3,0.4,1.7C50.4,12.3,50.8,12.5,51.3,12.5z"/>
				<path class="st2" d="M56.8,6.8l0.1,0.8c0.5-0.6,1.2-0.9,2-0.9c1.5,0,2.2,0.8,2.2,2.5v4.6h-1.5V9.3c0-0.5-0.1-0.8-0.3-1
					S58.8,8,58.4,8c-0.6,0-1.1,0.3-1.4,0.9v4.9h-1.5V6.9h1.3V6.8z"/>
			</g>
		</g>
	</g>
</g>
<g id="Layer_8_2_" class="st0">
	<g class="st1">
		<g id="Marker_7_">
			<path class="st2" d="M47,57L47,57L47,57z"/>
			<path class="st2" d="M8,57L8,57L8,57z"/>
			<path class="st3" d="M40.8,13.7c-4-2.3-8.4-3.6-13.3-3.6c-15,0-27.2,12.3-27.2,27.5c0,4.1,1,8.2,2.6,11.7C4.2,52.2,6,54.9,8.2,57
				l0,0l17.9,18.3c0.7,0.7,2,0.7,2.7,0L46.7,57l0,0c2.1-2.3,4-4.9,5.3-7.7c1.7-3.6,2.6-7.4,2.6-11.7c0-5-1.3-9.6-3.6-13.6
				C46.1,22.6,42.1,18.7,40.8,13.7z"/>
		</g>
		<g id="Layer_10_1_">
			<circle id="severityBackgrnd_8_" class="st22" cx="54.7" cy="10.1" r="10"/>
			<g>
				<path class="st2" d="M52.8,13.8c0.4,0,0.7-0.1,1-0.3c0.3-0.1,0.4-0.6,0.4-0.9h1.4c0,0.4-0.1,0.9-0.4,1.1c-0.3,0.4-0.6,0.7-1,0.9
					s-1,0.3-1.4,0.3c-1,0-1.7-0.3-2.3-1c-0.6-0.7-0.9-1.6-0.9-2.7v-0.1c0-1,0.3-2,0.9-2.6c0.6-0.7,1.3-1,2.3-1c0.9,0,1.6,0.3,2,0.7
					c0.6,0.4,0.9,1.1,0.9,2h-1.4c0-0.4-0.1-0.7-0.4-1c-0.3-0.3-0.6-0.4-1-0.4c-0.6,0-1,0.1-1.1,0.6c-0.3,0.4-0.4,1-0.4,1.7v0.3
					c0,0.7,0.1,1.3,0.4,1.7C51.8,13.7,52.2,13.8,52.8,13.8z"/>
				<g>
					<path class="st2" d="M59.7,15.1h-1.9v-10h1.9V15.1z"/>
				</g>
			</g>
		</g>
	</g>
</g>
</svg>
