<?xml version="1.0" encoding="utf-8"?>
<!-- Generator: Adobe Illustrator 21.1.0, SVG Export Plug-In . SVG Version: 6.00 Build 0)  -->
<svg version="1.1" xmlns="http://www.w3.org/2000/svg" xmlns:xlink="http://www.w3.org/1999/xlink" x="0px" y="0px"
	 viewBox="0 0 75.2 86.8" style="enable-background:new 0 0 75.2 86.8;" xml:space="preserve">
<style type="text/css">
	.st0{display:none;}
	.st1{display:inline;fill:#FFCC00;}
	.st2{display:inline;}
	.st3{fill:#FFFFFF;}
	.st4{display:inline;fill:#FF7900;}
	.st5{display:inline;fill:#9E9E9E;}
	.st6{display:inline;fill:#D7CCC8;}
	.st7{display:inline;opacity:0.54;}
	.st8{display:inline;fill:#BE0006;}
	.st9{display:inline;fill:#FFFFFF;}
	.st10{display:inline;fill:#607D8B;}
	.st11{display:inline;enable-background:new    ;}
	.st12{display:inline;fill:#06BFA9;}
	.st13{fill:#9E9E9E;}
	.st14{fill:#FFCC00;}
	.st15{fill:#FF7900;}
	.st16{fill:#D7CCC8;}
	.st17{opacity:0.54;}
	.st18{fill:#BE0006;}
	.st19{fill:#607D8B;}
	.st20{enable-background:new    ;}
	.st21{fill:#06BFA9;}
	.st22{fill:#42A5F5;}
</style>
<g id="Layer_1">
	<g id="Layer_4" class="st0">
		<circle id="severityBackgrnd_14_" class="st1" cx="54.4" cy="1" r="10"/>
		<g class="st2">
			<path class="st3" d="M56.8-1.1c-0.3,0-0.5,0.1-0.7,0.2s-0.3,0.3-0.4,0.5c-0.1,0.2-0.1,0.5-0.2,0.7c-0.1,0.3-0.1,0.7-0.1,0.9
				l-0.1,3.5h-1.8l0.1-4.5c0-0.4-0.1-0.8-0.3-1s-0.4-0.3-0.7-0.3S52.1-1,51.9-0.9s-0.3,0.3-0.4,0.5c-0.1,0.2-0.1,0.5-0.2,0.7
				c-0.1,0.3-0.1,0.7-0.1,0.9l-0.1,3.5h-1.8l0.1-7.3h1.7l0.1,0.9c0.1-0.1,0.1-0.2,0.3-0.3c0.2-0.1,0.3-0.3,0.4-0.3
				c0.1-0.1,0.3-0.2,0.5-0.3c0.2-0.1,0.4-0.1,0.7-0.1c0.9,0,1.6,0.3,1.9,1.1c0.2-0.3,0.5-0.5,0.7-0.7C56-2.5,56.4-2.6,57-2.6
				c0.9,0,1.5,0.3,1.9,0.7s0.6,1.3,0.6,2.1l-0.1,4.6h-1.8l0.1-4.5c0-0.4-0.1-0.8-0.3-1C57.3-1,57-1.1,56.8-1.1z"/>
		</g>
	</g>
	<g id="Layer_5" class="st0">
		<circle id="severityBackgrnd_13_" class="st4" cx="54.4" cy="1" r="10"/>
		<g class="st2">
			<path class="st3" d="M59.2-4V6h-1.9v-6.7l-2.2,4.4h-1.4l-2.1-4.2v6.6h-1.9v-10h2.1l2.6,5.5L57.1-4C57.1-4,59.2-4,59.2-4z"/>
		</g>
	</g>
	<g id="Layer_6" class="st0">
		<circle id="severityBackgrnd_12_" class="st5" cx="54.4" cy="1" r="10"/>
		<g class="st2">
			<rect x="53.5" y="-0.6" class="st3" width="1.9" height="6.7"/>
			<rect x="53.5" y="-4" class="st3" width="1.9" height="2"/>
		</g>
	</g>
	<g id="Layer_7" class="st0">
		<circle id="severityBackgrnd_11_" class="st6" cx="54.4" cy="1" r="10"/>
		<g class="st7">
			<g>
				<path d="M55.4,6h-1.9V-4h1.9V6z"/>
			</g>
		</g>
	</g>
	<g id="Layer_8" class="st0">
		<circle id="severityBackgrnd_10_" class="st8" cx="54.4" cy="1" r="10"/>
		<path class="st9" d="M54.6,4.3c0.5,0,1-0.1,1.3-0.5c0.3-0.3,0.5-0.7,0.6-1.1h2c0,0.6-0.2,1.1-0.5,1.7c-0.3,0.5-0.8,0.9-1.4,1.2
			c-0.6,0.3-1.3,0.5-1.9,0.5c-1.3,0-2.4-0.5-3.2-1.3s-1.2-2.1-1.2-3.6V1c0-1.5,0.4-2.6,1.2-3.5s1.9-1.3,3.2-1.3c1.1,0,2.1,0.3,2.8,1
			s1.1,1.5,1.1,2.6h-2c0-0.5-0.2-1-0.5-1.3S55.3-2,54.8-2c-0.7,0-1.3,0.3-1.6,0.7C52.8-0.8,52.6,0,52.6,1v0.3c0,1.1,0.2,1.8,0.5,2.3
			C53.4,4,53.9,4.3,54.6,4.3z"/>
	</g>
	<g id="Layer_9" class="st0">
		<circle id="severityBackgrnd_9_" class="st10" cx="54.4" cy="1" r="10"/>
		<g class="st11">
			<path class="st3" d="M51.1,3.4c0.4,0,0.7-0.1,1-0.3s0.4-0.5,0.4-0.9H54c0,0.5-0.1,0.9-0.4,1.2c-0.3,0.4-0.6,0.7-1,0.9
				s-0.9,0.3-1.4,0.3c-1,0-1.7-0.3-2.3-0.9S48,2.2,48,1.1V1c0-1.1,0.3-1.9,0.9-2.5c0.6-0.6,1.3-0.9,2.3-0.9c0.8,0,1.5,0.3,2,0.7
				C53.7-1.2,54-0.6,54,0.2h-1.5c0-0.4-0.1-0.7-0.4-1c-0.3-0.3-0.6-0.4-1-0.4c-0.5,0-0.9,0.2-1.2,0.5c-0.3,0.4-0.4,0.9-0.4,1.7v0.3
				c0,0.7,0.1,1.3,0.4,1.7C50.2,3.2,50.6,3.4,51.1,3.4z"/>
			<path class="st3" d="M56.6-2.3l0.1,0.8c0.5-0.6,1.2-0.9,2-0.9c1.5,0,2.2,0.8,2.2,2.5v4.6h-1.5V0.2c0-0.5-0.1-0.8-0.3-1
				s-0.5-0.3-0.9-0.3c-0.6,0-1.1,0.3-1.4,0.9v4.9h-1.5v-6.9L56.6-2.3C56.6-2.2,56.6-2.3,56.6-2.3z"/>
		</g>
	</g>
	<g id="Layer_10" class="st0">
		<circle id="severityBackgrnd_1_" class="st12" cx="54.4" cy="1" r="10"/>
		<g class="st2">
			<path class="st3" d="M52.6,4.8c0.4,0,0.7-0.1,1-0.3C53.9,4.3,54,4,54,3.6h1.5c0,0.5-0.1,0.9-0.4,1.2c-0.3,0.4-0.6,0.7-1.1,0.9
				C53.5,5.9,53.1,6,52.6,6c-1,0-1.7-0.3-2.3-0.9c-0.6-0.7-0.9-1.5-0.9-2.7V2.3c0-1.1,0.3-1.9,0.9-2.5c0.6-0.7,1.3-0.9,2.3-0.9
				c0.9,0,1.5,0.3,2.1,0.7c0.5,0.5,0.8,1.1,0.8,1.9H54c0-0.4-0.1-0.7-0.4-1c-0.3-0.3-0.6-0.4-1-0.4c-0.5,0-0.9,0.2-1.2,0.5
				C51.1,1,51,1.5,51,2.3v0.3c0,0.7,0.1,1.3,0.4,1.7C51.6,4.6,52,4.8,52.6,4.8z"/>
			<g>
				<path class="st3" d="M59.5,6h-1.8V-4h1.8V6z"/>
			</g>
		</g>
	</g>
	<g id="Layer_2" class="st0">
		<g class="st2">
			<g id="Marker_1_">
				<path class="st3" d="M52.1,62.3L52.1,62.3L52.1,62.3z"/>
				<path class="st3" d="M13.3,62.3L13.3,62.3L13.3,62.3z"/>
				<path class="st13" d="M46,19c-3.9-2.2-8.5-3.5-13.3-3.5c-15,0-27.1,12.3-27.1,27.4c0,4.2,0.9,8.1,2.6,11.6
					c1.3,2.9,3.1,5.5,5.4,7.8l0,0l17.8,18.3c0.7,0.8,2,0.8,2.7,0l17.8-18.3l0,0c2.2-2.2,4-4.9,5.4-7.8c1.6-3.5,2.6-7.5,2.6-11.6
					c0-5-1.3-9.6-3.6-13.6C51.2,27.9,47.3,24,46,19z"/>
			</g>
			<g id="Layer_4_1_">
				<circle id="severityBackgrnd_2_" class="st14" cx="59.8" cy="15.4" r="10"/>
				<g>
					<path class="st3" d="M62.2,13.3c-0.3,0-0.5,0.1-0.7,0.2s-0.3,0.3-0.4,0.5s-0.1,0.5-0.2,0.7c-0.1,0.3-0.1,0.7-0.1,0.9l-0.1,3.5
						h-1.8l0.1-4.5c0-0.4-0.1-0.8-0.3-1s-0.4-0.3-0.7-0.3s-0.5,0.1-0.7,0.2S57,13.8,56.9,14c-0.1,0.2-0.1,0.5-0.2,0.7
						c-0.1,0.3-0.1,0.7-0.1,0.9l-0.1,3.5h-1.8l0.1-7.3h1.7l0.1,0.9c0.1-0.1,0.1-0.2,0.3-0.3s0.3-0.3,0.4-0.3
						c0.1-0.1,0.3-0.2,0.5-0.3s0.4-0.1,0.7-0.1c0.9,0,1.6,0.3,1.9,1.1c0.2-0.3,0.5-0.5,0.7-0.7c0.3-0.2,0.7-0.3,1.3-0.3
						c0.9,0,1.5,0.3,1.9,0.7c0.4,0.4,0.6,1.3,0.6,2.1l-0.1,4.6H63l0.1-4.5c0-0.4-0.1-0.8-0.3-1C62.7,13.4,62.4,13.3,62.2,13.3z"/>
				</g>
			</g>
		</g>
	</g>
	<g id="Layer_3_1_" class="st0">
		<g class="st2">
			<g id="Marker_2_">
				<path class="st3" d="M52.1,62.3L52.1,62.3L52.1,62.3z"/>
				<path class="st3" d="M13.3,62.3L13.3,62.3L13.3,62.3z"/>
				<path class="st13" d="M46,19c-3.9-2.2-8.5-3.5-13.3-3.5c-15,0-27.1,12.3-27.1,27.4c0,4.2,0.9,8.1,2.6,11.6
					c1.3,2.9,3.1,5.5,5.4,7.8l0,0l17.8,18.3c0.7,0.8,2,0.8,2.7,0l17.8-18.3l0,0c2.2-2.2,4-4.9,5.4-7.8c1.6-3.5,2.6-7.5,2.6-11.6
					c0-5-1.3-9.6-3.6-13.6C51.2,27.9,47.3,24,46,19z"/>
			</g>
			<g id="Layer_5_1_">
				<circle id="severityBackgrnd_3_" class="st15" cx="59.8" cy="15.4" r="10"/>
				<g>
					<path class="st3" d="M64.6,10.4v10h-1.9v-6.7l-2.2,4.4h-1.4L57,13.9v6.6h-1.9v-10h2.1l2.6,5.5l2.7-5.6
						C62.5,10.4,64.6,10.4,64.6,10.4z"/>
				</g>
			</g>
		</g>
	</g>
	<g id="Layer_4_2_" class="st0">
		<g class="st2">
			<g id="Marker_3_">
				<path class="st3" d="M52.1,62.3L52.1,62.3L52.1,62.3z"/>
				<path class="st3" d="M13.3,62.3L13.3,62.3L13.3,62.3z"/>
				<path class="st13" d="M46,19c-3.9-2.2-8.5-3.5-13.3-3.5c-15,0-27.1,12.3-27.1,27.4c0,4.2,0.9,8.1,2.6,11.6
					c1.3,2.9,3.1,5.5,5.4,7.8l0,0l17.8,18.3c0.7,0.8,2,0.8,2.7,0l17.8-18.3l0,0c2.2-2.2,4-4.9,5.4-7.8c1.6-3.5,2.6-7.5,2.6-11.6
					c0-5-1.3-9.6-3.6-13.6C51.2,27.9,47.3,24,46,19z"/>
			</g>
			<g id="Layer_6_1_">
				<circle id="severityBackgrnd_4_" class="st13" cx="59.8" cy="15.4" r="10"/>
				<g>
					<rect x="58.9" y="13.8" class="st3" width="1.9" height="6.7"/>
					<rect x="58.9" y="10.4" class="st3" width="1.9" height="2"/>
				</g>
			</g>
		</g>
	</g>
	<g id="Layer_5_2_" class="st0">
		<g class="st2">
			<g id="Marker_4_">
				<path class="st3" d="M52.1,62.3L52.1,62.3L52.1,62.3z"/>
				<path class="st3" d="M13.3,62.3L13.3,62.3L13.3,62.3z"/>
				<path class="st13" d="M46,19c-3.9-2.2-8.5-3.5-13.3-3.5c-15,0-27.1,12.3-27.1,27.4c0,4.2,0.9,8.1,2.6,11.6
					c1.3,2.9,3.1,5.5,5.4,7.8l0,0l17.8,18.3c0.7,0.8,2,0.8,2.7,0l17.8-18.3l0,0c2.2-2.2,4-4.9,5.4-7.8c1.6-3.5,2.6-7.5,2.6-11.6
					c0-5-1.3-9.6-3.6-13.6C51.2,27.9,47.3,24,46,19z"/>
			</g>
			<g id="Layer_7_1_">
				<circle id="severityBackgrnd_5_" class="st16" cx="59.8" cy="15.4" r="10"/>
				<g class="st17">
					<g>
						<path d="M60.8,20.4h-1.9v-10h1.9V20.4z"/>
					</g>
				</g>
			</g>
		</g>
	</g>
	<g id="Layer_6_2_" class="st0">
		<g class="st2">
			<g id="Marker_5_">
				<path class="st3" d="M52.1,62.3L52.1,62.3L52.1,62.3z"/>
				<path class="st3" d="M13.3,62.3L13.3,62.3L13.3,62.3z"/>
				<path class="st13" d="M46,19c-3.9-2.2-8.5-3.5-13.3-3.5c-15,0-27.1,12.3-27.1,27.4c0,4.2,0.9,8.1,2.6,11.6
					c1.3,2.9,3.1,5.5,5.4,7.8l0,0l17.8,18.3c0.7,0.8,2,0.8,2.7,0l17.8-18.3l0,0c2.2-2.2,4-4.9,5.4-7.8c1.6-3.5,2.6-7.5,2.6-11.6
					c0-5-1.3-9.6-3.6-13.6C51.2,27.9,47.3,24,46,19z"/>
			</g>
			<g id="Layer_8_1_">
				<circle id="severityBackgrnd_6_" class="st18" cx="59.8" cy="15.4" r="10"/>
				<path class="st3" d="M60,18.7c0.5,0,1-0.1,1.3-0.5c0.3-0.3,0.5-0.7,0.6-1.1h2c0,0.6-0.2,1.1-0.5,1.7c-0.3,0.5-0.8,0.9-1.4,1.2
					c-0.6,0.3-1.3,0.5-1.9,0.5c-1.3,0-2.4-0.5-3.2-1.3c-0.8-0.8-1.2-2.1-1.2-3.6v-0.2c0-1.5,0.4-2.6,1.2-3.5
					c0.8-0.9,1.9-1.3,3.2-1.3c1.1,0,2.1,0.3,2.8,1s1.1,1.5,1.1,2.6h-2c0-0.5-0.2-1-0.5-1.3s-0.8-0.5-1.3-0.5c-0.7,0-1.3,0.3-1.6,0.7
					c-0.4,0.5-0.6,1.3-0.6,2.3v0.3c0,1.1,0.2,1.8,0.5,2.3C58.8,18.4,59.3,18.7,60,18.7z"/>
			</g>
		</g>
	</g>
	<g id="Layer_7_2_" class="st0">
		<g class="st2">
			<g id="Marker_6_">
				<path class="st3" d="M52.1,62.3L52.1,62.3L52.1,62.3z"/>
				<path class="st3" d="M13.3,62.3L13.3,62.3L13.3,62.3z"/>
				<path class="st13" d="M46,19c-3.9-2.2-8.5-3.5-13.3-3.5c-15,0-27.1,12.3-27.1,27.4c0,4.2,0.9,8.1,2.6,11.6
					c1.3,2.9,3.1,5.5,5.4,7.8l0,0l17.8,18.3c0.7,0.8,2,0.8,2.7,0l17.8-18.3l0,0c2.2-2.2,4-4.9,5.4-7.8c1.6-3.5,2.6-7.5,2.6-11.6
					c0-5-1.3-9.6-3.6-13.6C51.2,27.9,47.3,24,46,19z"/>
			</g>
			<g id="Layer_9_1_">
				<circle id="severityBackgrnd_7_" class="st19" cx="59.8" cy="15.4" r="10"/>
				<g class="st20">
					<path class="st3" d="M56.5,17.8c0.4,0,0.7-0.1,1-0.3c0.3-0.2,0.4-0.5,0.4-0.9h1.5c0,0.5-0.1,0.9-0.4,1.2
						c-0.3,0.4-0.6,0.7-1,0.9c-0.4,0.2-0.9,0.3-1.4,0.3c-1,0-1.7-0.3-2.3-0.9c-0.6-0.6-0.9-1.5-0.9-2.6v-0.1c0-1.1,0.3-1.9,0.9-2.5
						c0.6-0.6,1.3-0.9,2.3-0.9c0.8,0,1.5,0.3,2,0.7c0.5,0.5,0.8,1.1,0.8,1.9h-1.5c0-0.4-0.1-0.7-0.4-1c-0.3-0.3-0.6-0.4-1-0.4
						c-0.5,0-0.9,0.2-1.2,0.5c-0.3,0.4-0.4,0.9-0.4,1.7v0.3c0,0.7,0.1,1.3,0.4,1.7C55.6,17.6,56,17.8,56.5,17.8z"/>
					<path class="st3" d="M62,12.1l0.1,0.8c0.5-0.6,1.2-0.9,2-0.9c1.5,0,2.2,0.8,2.2,2.5v4.6h-1.5v-4.5c0-0.5-0.1-0.8-0.3-1
						c-0.2-0.2-0.5-0.3-0.9-0.3c-0.6,0-1.1,0.3-1.4,0.9v4.9h-1.5v-6.9H62V12.1z"/>
				</g>
			</g>
		</g>
	</g>
	<g id="Layer_8_2_" class="st0">
		<g class="st2">
			<g id="Marker_7_">
				<path class="st3" d="M52.2,62.3L52.2,62.3L52.2,62.3z"/>
				<path class="st3" d="M13.2,62.3L13.2,62.3L13.2,62.3z"/>
				<path class="st13" d="M46,19c-4-2.3-8.4-3.6-13.3-3.6c-15,0-27.2,12.3-27.2,27.5c0,4.1,1,8.2,2.6,11.7c1.3,2.9,3.1,5.6,5.3,7.7
					l0,0l17.9,18.3c0.7,0.7,2,0.7,2.7,0l17.9-18.3l0,0c2.1-2.3,4-4.9,5.3-7.7c1.7-3.6,2.6-7.4,2.6-11.7c0-5-1.3-9.6-3.6-13.6
					C51.3,27.9,47.3,24,46,19z"/>
			</g>
			<g id="Layer_10_1_">
				<circle id="severityBackgrnd_8_" class="st21" cx="59.9" cy="15.4" r="10"/>
				<g>
					<path class="st3" d="M58,19.1c0.4,0,0.7-0.1,1-0.3c0.3-0.1,0.4-0.6,0.4-0.9h1.4c0,0.4-0.1,0.9-0.4,1.1c-0.3,0.4-0.6,0.7-1,0.9
						c-0.4,0.2-1,0.3-1.4,0.3c-1,0-1.7-0.3-2.3-1c-0.6-0.7-0.9-1.6-0.9-2.7v-0.1c0-1,0.3-2,0.9-2.6c0.6-0.7,1.3-1,2.3-1
						c0.9,0,1.6,0.3,2,0.7c0.6,0.4,0.9,1.1,0.9,2h-1.4c0-0.4-0.1-0.7-0.4-1c-0.3-0.3-0.6-0.4-1-0.4c-0.6,0-1,0.1-1.1,0.6
						c-0.3,0.4-0.4,1-0.4,1.7v0.3c0,0.7,0.1,1.3,0.4,1.7C57,19,57.4,19.1,58,19.1z"/>
					<g>
						<path class="st3" d="M64.9,20.4H63v-10h1.9V20.4z"/>
					</g>
				</g>
			</g>
		</g>
	</g>
	<g>
		<path class="st22" d="M33.1,83.8c-1.4,0-2.6-0.6-3.5-1.6L11.8,64c-2.5-2.5-4.5-5.4-6-8.7C4,51.4,3,47.1,3,42.5
			c0-16.8,13.5-30.4,30.1-30.4h0.1c16.6,0,30.1,13.6,30.1,30.4c0,4.6-1,8.9-2.9,12.9c-1.4,3.1-3.4,6.1-6,8.6L36.7,82.2
			C35.8,83.2,34.5,83.8,33.1,83.8z"/>
		<path class="st22" d="M33.2,15.1c15,0,27.1,12.3,27.1,27.4c0,4.2-0.9,8.1-2.6,11.6c-1.3,2.9-3.1,5.5-5.4,7.8L34.5,80.2
			c-0.3,0.4-0.8,0.6-1.3,0.6s-1-0.2-1.3-0.6L14,61.9c-2.3-2.3-4.1-4.9-5.4-7.8C6.9,50.6,6,46.7,6,42.5C6,27.4,18.1,15.1,33.2,15.1
			C33.1,15.1,33.1,15.1,33.2,15.1C33.2,15.1,33.2,15.1,33.2,15.1 M33.2,9.1L33.2,9.1H33l0,0c-18.2,0-33,15-33,33.4
			c0,5,1.1,9.8,3.2,14.1c1.6,3.5,3.8,6.7,6.6,9.5l17.7,18.2c1.5,1.6,3.5,2.5,5.7,2.5s4.3-0.9,5.7-2.5l17.7-18.2c2.8-2.8,5-6,6.6-9.5
			c2.1-4.4,3.2-9.1,3.2-14.1C66.3,24.1,51.5,9.1,33.2,9.1L33.2,9.1z"/>
	</g>
</g>
<g id="Layer_2_1_">
	<path class="st13" d="M33.2,15.1C33.2,15.1,33.2,15.1,33.2,15.1C33.1,15.1,33.1,15.1,33.2,15.1C18.1,15.1,6,27.4,6,42.5
		c0,4.2,0.9,8.1,2.6,11.6c1.3,2.9,3.1,5.5,5.4,7.8l17.8,18.3c0.3,0.4,0.8,0.6,1.3,0.6s1-0.2,1.3-0.6l17.8-18.3
		c2.3-2.3,4.1-4.9,5.4-7.8c1.7-3.5,2.6-7.4,2.6-11.6C60.3,27.4,48.2,15.1,33.2,15.1z"/>
</g>
<g id="Layer_3_3_" class="st0">
	<g id="Layer_3_2_" class="st2">
		<g id="severityBackgrnd_16_">
			<path class="st3" d="M60.2,27c-6.6,0-12-5.4-12-12s5.4-12,12-12s12,5.4,12,12S66.8,27,60.2,27z"/>
			<path class="st3" d="M60.2,5c5.5,0,10,4.5,10,10c0,5.5-4.5,10-10,10s-10-4.5-10-10C50.2,9.5,54.7,5,60.2,5 M60.2,1
				c-7.7,0-14,6.3-14,14s6.3,14,14,14s14-6.3,14-14S67.9,1,60.2,1L60.2,1z"/>
		</g>
	</g>
</g>
<g id="Layer_4_3_" class="st0">
	<g id="Layer_3_5_" class="st2">
		<circle id="severityBackgrnd_15_" class="st22" cx="60.2" cy="15" r="10"/>
		<g>
			<path class="st3" d="M58.7,20h-2.2l-2.2-9.9h2.1l1.3,7.2l1.5-6.9h2.1l1.5,6.9l1.3-7.2h2.1L64.1,20h-2.2l-1.7-6.9L58.7,20z"/>
		</g>
	</g>
</g>
<g id="Layer_6_3_" class="st0">
	<g id="Layer_4_4_" class="st2">
		<circle id="severityBackgrnd_17_" class="st14" cx="60.2" cy="15" r="10"/>
		<g>
			<path class="st3" d="M62.6,12.9c-0.3,0-0.5,0.1-0.7,0.2s-0.3,0.3-0.4,0.5s-0.1,0.5-0.2,0.7c-0.1,0.3-0.1,0.7-0.1,0.9l-0.1,3.5
				h-1.8l0.1-4.5c0-0.4-0.1-0.8-0.3-1s-0.4-0.3-0.7-0.3s-0.5,0.1-0.7,0.2s-0.3,0.3-0.4,0.5c-0.1,0.2-0.1,0.5-0.2,0.7
				C57,14.6,57,15,57,15.2l-0.1,3.5h-1.8l0.1-7.3h1.7l0.1,0.9c0.1-0.1,0.1-0.2,0.3-0.3s0.3-0.3,0.4-0.3c0.1-0.1,0.3-0.2,0.5-0.3
				s0.4-0.1,0.7-0.1c0.9,0,1.6,0.3,1.9,1.1c0.2-0.3,0.5-0.5,0.7-0.7c0.3-0.2,0.7-0.3,1.3-0.3c0.9,0,1.5,0.3,1.9,0.7s0.6,1.3,0.6,2.1
				l-0.1,4.6h-1.8l0.1-4.5c0-0.4-0.1-0.8-0.3-1C63.1,13,62.8,12.9,62.6,12.9z"/>
		</g>
	</g>
</g>
<g id="Layer_7_3_" class="st0">
	<g id="Layer_3_4_" class="st2">
		<g>
			<g id="Layer_5_4_">
				<circle id="severityBackgrnd_19_" class="st15" cx="60.1" cy="15.1" r="10"/>
				<g>
					<path class="st3" d="M64.9,10.1v10H63v-6.7l-2.2,4.4h-1.4l-2.1-4.2v6.6h-1.9v-10h2.1l2.6,5.5l2.7-5.6
						C62.8,10.1,64.9,10.1,64.9,10.1z"/>
				</g>
			</g>
		</g>
	</g>
</g>
<g id="Layer_8_3_" class="st0">
	<g id="Layer_4_5_" class="st2">
		<g>
			<g id="Layer_6_4_">
				<circle id="severityBackgrnd_20_" class="st13" cx="60.1" cy="15.1" r="10"/>
				<g>
					<rect x="59.2" y="13.5" class="st3" width="1.9" height="6.7"/>
					<rect x="59.2" y="10.1" class="st3" width="1.9" height="2"/>
				</g>
			</g>
		</g>
	</g>
</g>
<g id="Layer_9_2_" class="st0">
	<g id="Layer_5_5_" class="st2">
		<g>
			<g id="Layer_7_4_">
				<circle id="severityBackgrnd_21_" class="st16" cx="60.1" cy="15.1" r="10"/>
				<g class="st17">
					<g>
						<path d="M61.1,20.1h-1.9v-10h1.9V20.1z"/>
					</g>
				</g>
			</g>
		</g>
	</g>
</g>
<g id="Layer_10_2_" class="st0">
	<g id="Layer_6_5_" class="st2">
		<g>
			<g id="Layer_8_4_">
				<circle id="severityBackgrnd_22_" class="st18" cx="60.1" cy="15.1" r="10"/>
				<path class="st3" d="M60.3,18.4c0.5,0,1-0.1,1.3-0.5c0.3-0.3,0.5-0.7,0.6-1.1h2c0,0.6-0.2,1.1-0.5,1.7c-0.3,0.5-0.8,0.9-1.4,1.2
					c-0.6,0.3-1.3,0.5-1.9,0.5c-1.3,0-2.4-0.5-3.2-1.3c-0.8-0.8-1.2-2.1-1.2-3.6v-0.2c0-1.5,0.4-2.6,1.2-3.5
					c0.8-0.9,1.9-1.3,3.2-1.3c1.1,0,2.1,0.3,2.8,1s1.1,1.5,1.1,2.6h-2c0-0.5-0.2-1-0.5-1.3s-0.8-0.5-1.3-0.5c-0.7,0-1.3,0.3-1.6,0.7
					c-0.4,0.5-0.6,1.3-0.6,2.3v0.3c0,1.1,0.2,1.8,0.5,2.3C59.1,18.1,59.6,18.4,60.3,18.4z"/>
			</g>
		</g>
	</g>
</g>
<g id="Layer_11" class="st0">
	<g id="Layer_7_5_" class="st2">
		<g>
			<g id="Layer_9_3_">
				<circle id="severityBackgrnd_23_" class="st19" cx="60.1" cy="15.1" r="10"/>
				<g class="st20">
					<path class="st3" d="M56.8,17.5c0.4,0,0.7-0.1,1-0.3c0.3-0.2,0.4-0.5,0.4-0.9h1.5c0,0.5-0.1,0.9-0.4,1.2
						c-0.3,0.4-0.6,0.7-1,0.9c-0.4,0.2-0.9,0.3-1.4,0.3c-1,0-1.7-0.3-2.3-0.9c-0.6-0.6-0.9-1.5-0.9-2.6v-0.1c0-1.1,0.3-1.9,0.9-2.5
						c0.6-0.6,1.3-0.9,2.3-0.9c0.8,0,1.5,0.3,2,0.7c0.5,0.5,0.8,1.1,0.8,1.9h-1.5c0-0.4-0.1-0.7-0.4-1c-0.3-0.3-0.6-0.4-1-0.4
						c-0.5,0-0.9,0.2-1.2,0.5c-0.3,0.4-0.4,0.9-0.4,1.7v0.3c0,0.7,0.1,1.3,0.4,1.7C55.9,17.3,56.3,17.5,56.8,17.5z"/>
					<path class="st3" d="M62.3,11.8l0.1,0.8c0.5-0.6,1.2-0.9,2-0.9c1.5,0,2.2,0.8,2.2,2.5v4.6h-1.5v-4.5c0-0.5-0.1-0.8-0.3-1
						c-0.2-0.2-0.5-0.3-0.9-0.3c-0.6,0-1.1,0.3-1.4,0.9v4.9H61v-6.9h1.3V11.8z"/>
				</g>
			</g>
		</g>
	</g>
</g>
<g id="Layer_12" class="st0">
	<g class="st2">
		<path class="st21" d="M60.2,5.1c-5.5,0-10,4.5-10,10c0,5.5,4.5,10,10,10s10-4.5,10-10C70.2,9.6,65.8,5.1,60.2,5.1z"/>
		<path class="st3" d="M56.5,17.6c0.3,0.3,0.7,0.5,1.2,0.5c0.4,0,0.7-0.1,1-0.3c0.3-0.2,0.4-0.5,0.4-0.9h1.5c0,0.5-0.1,0.9-0.4,1.2
			c-0.3,0.4-0.6,0.7-1.1,0.9c-0.5,0.2-0.9,0.3-1.4,0.3c-1,0-1.7-0.3-2.3-0.9c-0.6-0.7-0.9-1.5-0.9-2.7v-0.1c0-1.1,0.3-1.9,0.9-2.5
			c0.6-0.7,1.3-0.9,2.3-0.9c0.9,0,1.5,0.3,2.1,0.7c0.5,0.5,0.8,1.1,0.8,1.9h-1.5c0-0.4-0.1-0.7-0.4-1c-0.3-0.3-0.6-0.4-1-0.4
			c-0.5,0-0.9,0.2-1.2,0.5c-0.3,0.4-0.4,0.9-0.4,1.7v0.3C56.1,16.6,56.2,17.2,56.5,17.6z"/>
		<rect x="62.8" y="9.4" class="st3" width="1.8" height="10"/>
	</g>
</g>
</svg>
